<svg xmlns="http://www.w3.org/2000/svg" width="480" height="516" class="">
    <defs>
        <style/>
    </defs>
    <style>@keyframes animation-gauge{0%{stroke-dasharray:0 329}}@keyframes animation-rainbow{0%,to{color:#7f00ff;fill:#7f00ff}14%{color:#a933ff;fill:#a933ff}29%{color:#007fff;fill:#007fff}43%{color:#00ff7f;fill:#00ff7f}57%{color:#ff0;fill:#ff0}71%{color:#ff7f00;fill:#ff7f00}86%{color:red;fill:red}}svg{font-family:-apple-system,BlinkMacSystemFont,Segoe UI,Helvetica,Arial,sans-serif,Apple Color Emoji,Segoe UI Emoji;color:#777}h2,h3{margin:8px 0 2px;padding:0;color:#0366d6;font-weight:400}h2 svg,h3 svg{fill:currentColor}h2{font-size:16px}h3,svg{font-size:14px}section&gt;.field{margin-left:5px;margin-right:5px}.field{display:flex;align-items:center;margin-bottom:2px;white-space:nowrap}.field svg{margin:0 8px;fill:#959da5;flex-shrink:0}.row{display:flex;flex-wrap:wrap}.row section{flex:1 1 0}.margin-bottom{margin-bottom:16px}.margin-lr-auto{margin-left:auto;margin-right:auto}.diff-handle{color:#58a6ff;max-width:200px;text-overflow:ellipsis;overflow:hidden}.diff-box{display:inline-block;width:8px;height:8px;margin-left:1px;background-color:rgba(110,118,129,.4);border:1px solid rgba(246,240,251,.1)}.diff-box:first-child{margin-left:9px}.diff-box.added{background-color:#3fb950}.diff-box.deleted{background-color:#da3633}.diff-stats,code,span.code{font-family:SFMono-Regular,Consolas,Liberation Mono,Menlo,monospace}.diff-stats{margin-left:4px;font-weight:700;font-size:12px;white-space:nowrap}.added{color:#3fb950}.deleted{color:#da3633}code,span.code{background-color:#7777771f;padding:1px 5px;font-size:80%;border-radius:6px;color:#777}code{display:inline-block}span.code{margin:0 4px -3px}:root{--color-calendar-graph-day-bg:#ebedf0;--color-calendar-graph-day-border:rgba(27,31,35,0.06);--color-calendar-graph-day-L1-bg:#9be9a8;--color-calendar-graph-day-L2-bg:#40c463;--color-calendar-graph-day-L3-bg:#30a14e;--color-calendar-graph-day-L4-bg:#216e39;--color-calendar-halloween-graph-day-L1-bg:#ffee4a;--color-calendar-halloween-graph-day-L2-bg:#ffc501;--color-calendar-halloween-graph-day-L3-bg:#fe9600;--color-calendar-halloween-graph-day-L4-bg:#03001c;--color-calendar-winter-graph-day-L1-bg:#0a3069;--color-calendar-winter-graph-day-L2-bg:#0969da;--color-calendar-winter-graph-day-L3-bg:#54aeff;--color-calendar-winter-graph-day-L4-bg:#b6e3ff;--color-calendar-graph-day-L4-border:rgba(27,31,35,0.06);--color-calendar-graph-day-L3-border:rgba(27,31,35,0.06);--color-calendar-graph-day-L2-border:rgba(27,31,35,0.06);--color-calendar-graph-day-L1-border:rgba(27,31,35,0.06)}#metrics-end{width:100%}</style>
    <style/>
    <foreignObject x="0" y="0" width="100%" height="100%">
        <div xmlns="http://www.w3.org/1999/xhtml" xmlns:xlink="http://www.w3.org/1999/xlink" class="items-wrapper">
            <section>
                <h2 class="field">
                    <svg xmlns="http://www.w3.org/2000/svg" viewBox="0 0 16 16" width="16" height="16">
                        <path fill-rule="evenodd" d="M2.75 1.5a.25.25 0 00-.25.25v12.5c0 .138.112.25.25.25h10.5a.25.25 0 00.25-.25V4.664a.25.25 0 00-.073-.177l-2.914-2.914a.25.25 0 00-.177-.073H2.75zM1 1.75C1 .784 1.784 0 2.75 0h7.586c.464 0 .909.184 1.237.513l2.914 2.914c.329.328.513.773.513 1.237v9.586A1.75 1.75 0 0113.25 16H2.75A1.75 1.75 0 011 14.25V1.75zm7 1.5a.75.75 0 01.75.75v1.5h1.5a.75.75 0 010 1.5h-1.5v1.5a.75.75 0 01-1.5 0V7h-1.5a.75.75 0 010-1.5h1.5V4A.75.75 0 018 3.25zm-3 8a.75.75 0 01.75-.75h4.5a.75.75 0 010 1.5h-4.5a.75.75 0 01-.75-.75z"/>
                    </svg>
                    Lines of code pushed
                </h2>
                <div class="row">
                    <section>
                        <div class="field">
                            <svg xmlns="http://www.w3.org/2000/svg" viewBox="0 0 16 16" width="16" height="16">
                                <path fill-rule="evenodd" d="M8 5.5a2.5 2.5 0 100 5 2.5 2.5 0 000-5zM4 8a4 4 0 118 0 4 4 0 01-8 0z"/>
                            </svg>
                            <span class="diff-handle">Isaac7777-cpu/COMP2560-neuralgcm-lstm-tc-track-comparison</span>
                        </div>
                        <div class="field">
                            <svg xmlns="http://www.w3.org/2000/svg" viewBox="0 0 16 16" width="16" height="16">
                                <path fill-rule="evenodd" d="M8 5.5a2.5 2.5 0 100 5 2.5 2.5 0 000-5zM4 8a4 4 0 118 0 4 4 0 01-8 0z"/>
                            </svg>
                            <span class="diff-handle">Isaac7777-cpu/Megatron-LM</span>
                        </div>
                        <div class="field">
                            <svg xmlns="http://www.w3.org/2000/svg" viewBox="0 0 16 16" width="16" height="16">
                                <path fill-rule="evenodd" d="M8 5.5a2.5 2.5 0 100 5 2.5 2.5 0 000-5zM4 8a4 4 0 118 0 4 4 0 01-8 0z"/>
                            </svg>
                            <span class="diff-handle">Isaac7777-cpu/econ2026</span>
                        </div>
                        <div class="field">
                            <svg xmlns="http://www.w3.org/2000/svg" viewBox="0 0 16 16" width="16" height="16">
                                <path fill-rule="evenodd" d="M8 5.5a2.5 2.5 0 100 5 2.5 2.5 0 000-5zM4 8a4 4 0 118 0 4 4 0 01-8 0z"/>
                            </svg>
                            <span class="diff-handle">Isaac7777-cpu/comp3425-data-mining-notes</span>
                        </div>
                    </section>
                    <section>
                        <div class="field">
                            <div class="diff-box added"></div>
                            <div class="diff-box added"></div>
                            <div class="diff-box added"></div>
                            <div class="diff-box deleted"></div>
                            <div class="diff-box deleted"></div>
                            <div class="diff-stats">
                                <span class="added"> +3.46m</span>
                                <span class="deleted"> -3.27m</span>
                            </div>
                            <span> </span>
                        </div>
                        <div class="field">
                            <div class="diff-box added"></div>
                            <div class="diff-box added"></div>
                            <div class="diff-box added"></div>
                            <div class="diff-box deleted"></div>
                            <div class="diff-box deleted"></div>
                            <div class="diff-stats">
                                <span class="added">  +554k</span>
                                <span class="deleted">  -239k</span>
                            </div>
                            <span> </span>
                        </div>
                        <div class="field">
                            <div class="diff-box added"></div>
                            <div class="diff-box added"></div>
                            <div class="diff-box added"></div>
                            <div class="diff-box deleted"></div>
                            <div class="diff-box deleted"></div>
                            <div class="diff-stats">
                                <span class="added">  +283k</span>
                                <span class="deleted">  -267k</span>
                            </div>
                            <span> </span>
                        </div>
                        <div class="field">
                            <div class="diff-box added"></div>
                            <div class="diff-box added"></div>
                            <div class="diff-box added"></div>
                            <div class="diff-box added"></div>
                            <div class="diff-box deleted"></div>
                            <div class="diff-stats">
                                <span class="added"> +71.5k</span>
                                <span class="deleted"> -7.79k</span>
                            </div>
                            <span> </span>
                        </div>
                    </section>
                </div>
                <div class="row margin-bottom">
                    <h3 class="margin-lr-auto">Diff history</h3>
                    <svg xmlns="http://www.w3.org/2000/svg" width="480" height="315">
                        <g transform="translate(0,276)" fill="none" font-size="10" font-family="sans-serif" text-anchor="middle">
                            <path class="domain" stroke="currentColor" d="M39.5,6V0.5H441.5V6"/>
                            <g class="tick" opacity="1" transform="translate(98.68717728055077,0)">
                                <line stroke="currentColor" y2="6"/>
                                <text fill="currentColor" y="9" dy="0.71em" transform="translate(-5,5) rotate(-45)" style="text-anchor: end;">April</text>
                            </g>
                            <g class="tick" opacity="1" transform="translate(161.67986230636834,0)">
                                <line stroke="currentColor" y2="6"/>
                                <text fill="currentColor" y="9" dy="0.71em" transform="translate(-5,5) rotate(-45)" style="text-anchor: end;">July</text>
                            </g>
                            <g class="tick" opacity="1" transform="translate(225.3356282271945,0)">
                                <line stroke="currentColor" y2="6"/>
                                <text fill="currentColor" y="9" dy="0.71em" transform="translate(-5,5) rotate(-45)" style="text-anchor: end;">October</text>
                            </g>
                            <g class="tick" opacity="1" transform="translate(288.96256454388987,0)">
                                <line stroke="currentColor" y2="6"/>
                                <text fill="currentColor" y="9" dy="0.71em" transform="translate(-5,5) rotate(-45)" style="text-anchor: end;">2026</text>
                            </g>
                            <g class="tick" opacity="1" transform="translate(351.23450946643715,0)">
                                <line stroke="currentColor" y2="6"/>
                                <text fill="currentColor" y="9" dy="0.71em" transform="translate(-5,5) rotate(-45)" style="text-anchor: end;">April</text>
                            </g>
                            <g class="tick" opacity="1" transform="translate(414.22719449225474,0)">
                                <line stroke="currentColor" y2="6"/>
                                <text fill="currentColor" y="9" dy="0.71em" transform="translate(-5,5) rotate(-45)" style="text-anchor: end;">July</text>
                            </g>
                        </g>
                        <g transform="translate(39,0)" fill="none" font-size="10" font-family="sans-serif" text-anchor="end">
                            <path class="domain" stroke="currentColor" d="M-6,5.5H0.5V276.5H-6"/>
                            <g class="tick" opacity="1" transform="translate(0,39.130513231756204)">
                                <line stroke="currentColor" x2="-6"/>
                                <text fill="currentColor" x="-9" dy="0.32em">30k</text>
                            </g>
                            <g class="tick" opacity="1" transform="translate(0,73.08700882117081)">
                                <line stroke="currentColor" x2="-6"/>
                                <text fill="currentColor" x="-9" dy="0.32em">20k</text>
                            </g>
                            <g class="tick" opacity="1" transform="translate(0,107.04350441058538)">
                                <line stroke="currentColor" x2="-6"/>
                                <text fill="currentColor" x="-9" dy="0.32em">10k</text>
                            </g>
                            <g class="tick" opacity="1" transform="translate(0,141)">
                                <line stroke="currentColor" x2="-6"/>
                                <text fill="currentColor" x="-9" dy="0.32em">0.0</text>
                            </g>
                            <g class="tick" opacity="1" transform="translate(0,174.95649558941457)">
                                <line stroke="currentColor" x2="-6"/>
                                <text fill="currentColor" x="-9" dy="0.32em">−10k</text>
                            </g>
                            <g class="tick" opacity="1" transform="translate(0,208.9129911788292)">
                                <line stroke="currentColor" x2="-6"/>
                                <text fill="currentColor" x="-9" dy="0.32em">−20k</text>
                            </g>
                            <g class="tick" opacity="1" transform="translate(0,242.8694867682438)">
                                <line stroke="currentColor" x2="-6"/>
                                <text fill="currentColor" x="-9" dy="0.32em">−30k</text>
                            </g>
                        </g>
                        <path d="M39,140.5L43.843,140.5L48.687,140.5L53.53,140.5L58.373,140.5L63.217,140.5L68.06,140.5L72.904,140.5L77.747,140.5L82.59,140.5L87.434,140.5L92.277,140.5L97.12,140.5L101.964,140.5L106.807,140.5L111.651,140.5L116.494,140.5L121.337,140.5L126.181,140.5L131.024,140.5L135.867,140.5L140.711,140.5L145.554,140.5L150.398,140.5L155.241,140.5L160.084,140.5L164.928,140.5L169.771,140.5L174.614,140.5L179.458,140.5L184.301,140.5L189.145,140.5L193.988,140.5L198.831,140.5L203.675,140.5L208.518,140.5L213.361,140.5L218.205,140.5L223.048,140.5L227.892,140.5L232.735,140.5L237.578,140.5L242.422,140.5L247.265,140.5L252.108,140.5L256.952,140.5L261.795,140.5L266.639,140.5L271.482,140.5L276.325,140.5L281.169,140.5L286.012,140.5L290.855,140.5L295.699,140.5L300.542,140.5L305.386,140.5L310.229,140.5L315.072,140.5L319.916,140.5L324.759,140.5L329.602,140.5L334.446,140.5L339.289,140.5L344.133,140.5L348.976,140.5L353.819,140.5L358.663,140.5L363.506,140.5L368.349,140.5L373.193,140.5L378.036,140.5L382.88,140.5L387.723,140.5L392.566,140.5L397.41,140.5L402.253,140.5L407.096,140.5L411.94,140.5L416.783,140.5L421.627,140.5L426.47,140.5L431.313,140.5L436.157,140.5L441,140.5L441,139.043L436.157,132.537L431.313,135.597L426.47,133.943L421.627,138.527L416.783,139.006L411.94,139.841L407.096,139.98L402.253,139.899L397.41,140.133L392.566,139.902L387.723,135.284L382.88,135.699L378.036,139.76L373.193,94.859L368.349,136.435L363.506,137.369L358.663,138.823L353.819,138.15L348.976,125.817L344.133,131.892L339.289,117.79L334.446,133.634L329.602,132.819L324.759,134.503L319.916,133.627L315.072,117.824L310.229,134.096L305.386,139.702L300.542,134.707L295.699,132.575L290.855,134.164L286.012,129.043L281.169,138.819L276.325,138.541L271.482,138.941L266.639,137.539L261.795,135.091L256.952,128.052L252.108,139.899L247.265,139.651L242.422,118.36L237.578,129.899L232.735,132.347L227.892,139.831L223.048,137.244L218.205,78.044L213.361,138.761L208.518,134.71L203.675,138.531L198.831,139.189L193.988,136.71L189.145,135.006L184.301,137.271L179.458,137.176L174.614,137.457L169.771,136.378L164.928,29.106L160.084,129.542L155.241,137.369L150.398,128.116L145.554,12.419L140.711,139.257L135.867,93.202L131.024,112.639L126.181,138.972L121.337,76.889L116.494,118.51L111.651,113.518L106.807,105.012L101.964,125.613L97.12,138.188L92.277,132.418L87.434,5L82.59,99.844L77.747,95.735L72.904,97.368L68.06,111.325L63.217,140.381L58.373,140.052L53.53,138.86L48.687,135.128L43.843,115.542L39,131.753Z" fill="rgb(63, 185, 80)"/>
                        <path d="M39,140.5L43.843,140.5L48.687,140.5L53.53,140.5L58.373,140.5L63.217,140.5L68.06,140.5L72.904,140.5L77.747,140.5L82.59,140.5L87.434,140.5L92.277,140.5L97.12,140.5L101.964,140.5L106.807,140.5L111.651,140.5L116.494,140.5L121.337,140.5L126.181,140.5L131.024,140.5L135.867,140.5L140.711,140.5L145.554,140.5L150.398,140.5L155.241,140.5L160.084,140.5L164.928,140.5L169.771,140.5L174.614,140.5L179.458,140.5L184.301,140.5L189.145,140.5L193.988,140.5L198.831,140.5L203.675,140.5L208.518,140.5L213.361,140.5L218.205,140.5L223.048,140.5L227.892,140.5L232.735,140.5L237.578,140.5L242.422,140.5L247.265,140.5L252.108,140.5L256.952,140.5L261.795,140.5L266.639,140.5L271.482,140.5L276.325,140.5L281.169,140.5L286.012,140.5L290.855,140.5L295.699,140.5L300.542,140.5L305.386,140.5L310.229,140.5L315.072,140.5L319.916,140.5L324.759,140.5L329.602,140.5L334.446,140.5L339.289,140.5L344.133,140.5L348.976,140.5L353.819,140.5L358.663,140.5L363.506,140.5L368.349,140.5L373.193,140.5L378.036,140.5L382.88,140.5L387.723,140.5L392.566,140.5L397.41,140.5L402.253,140.5L407.096,140.5L411.94,140.5L416.783,140.5L421.627,140.5L426.47,140.5L431.313,140.5L436.157,140.5L441,140.5L441,141.373L436.157,144.493L431.313,142.507L426.47,142.218L421.627,141.974L416.783,141.994L411.94,141.179L407.096,140.999L402.253,141.101L397.41,140.867L392.566,141.098L387.723,142.711L382.88,141.889L378.036,141.169L373.193,142.762L368.349,141.648L363.506,142.286L358.663,141.332L353.819,141.57L348.976,141.413L344.133,144.344L339.289,143.417L334.446,142.595L329.602,142.351L324.759,141.93L319.916,142.734L315.072,149.729L310.229,142.762L305.386,141.295L300.542,143.519L295.699,143.909L290.855,141.977L286.012,142.558L281.169,141.379L276.325,142.442L271.482,141.621L266.639,142.391L261.795,142.269L256.952,142.398L252.108,141.101L247.265,141.369L242.422,145.234L237.578,142.809L232.735,141.295L227.892,141.169L223.048,142.442L218.205,141.59L213.361,141.668L208.518,141.76L203.675,142.999L198.831,141.284L193.988,141.301L189.145,142.279L184.301,142.402L179.458,142.211L174.614,142.697L169.771,141.604L164.928,142.772L160.084,144.972L155.241,142.15L150.398,146.354L145.554,154.398L140.711,141.722L135.867,155.909L131.024,144.497L126.181,141.413L121.337,187.798L116.494,140.935L111.651,190.803L106.807,141.288L101.964,141.281L97.12,142.089L92.277,140.52L87.434,185.706L82.59,143.651L77.747,153.291L72.904,147.919L68.06,140.894L63.217,140.548L58.373,140.554L53.53,140.816L48.687,145.064L43.843,141.172L39,142.599Z" fill="rgb(218, 54, 51)"/>
                    </svg>
                </div>
            </section>
        </div>
        <div xmlns="http://www.w3.org/1999/xhtml" id="metrics-end"></div>
    </foreignObject>
</svg>