<svg xmlns="http://www.w3.org/2000/svg" width="480" height="516" class="">
    <defs>
        <style/>
    </defs>
    <style>@keyframes animation-gauge{0%{stroke-dasharray:0 329}}@keyframes animation-rainbow{0%,to{color:#7f00ff;fill:#7f00ff}14%{color:#a933ff;fill:#a933ff}29%{color:#007fff;fill:#007fff}43%{color:#00ff7f;fill:#00ff7f}57%{color:#ff0;fill:#ff0}71%{color:#ff7f00;fill:#ff7f00}86%{color:red;fill:red}}svg{font-family:-apple-system,BlinkMacSystemFont,Segoe UI,Helvetica,Arial,sans-serif,Apple Color Emoji,Segoe UI Emoji;color:#777}h2,h3{margin:8px 0 2px;padding:0;color:#0366d6;font-weight:400}h2 svg,h3 svg{fill:currentColor}h2{font-size:16px}h3,svg{font-size:14px}section&gt;.field{margin-left:5px;margin-right:5px}.field{display:flex;align-items:center;margin-bottom:2px;white-space:nowrap}.field svg{margin:0 8px;fill:#959da5;flex-shrink:0}.row{display:flex;flex-wrap:wrap}.row section{flex:1 1 0}.margin-bottom{margin-bottom:16px}.margin-lr-auto{margin-left:auto;margin-right:auto}.diff-handle{color:#58a6ff;max-width:200px;text-overflow:ellipsis;overflow:hidden}.diff-box{display:inline-block;width:8px;height:8px;margin-left:1px;background-color:rgba(110,118,129,.4);border:1px solid rgba(246,240,251,.1)}.diff-box:first-child{margin-left:9px}.diff-box.added{background-color:#3fb950}.diff-box.deleted{background-color:#da3633}.diff-stats,code,span.code{font-family:SFMono-Regular,Consolas,Liberation Mono,Menlo,monospace}.diff-stats{margin-left:4px;font-weight:700;font-size:12px;white-space:nowrap}.added{color:#3fb950}.deleted{color:#da3633}code,span.code{background-color:#7777771f;padding:1px 5px;font-size:80%;border-radius:6px;color:#777}code{display:inline-block}span.code{margin:0 4px -3px}:root{--color-calendar-graph-day-bg:#ebedf0;--color-calendar-graph-day-border:rgba(27,31,35,0.06);--color-calendar-graph-day-L1-bg:#9be9a8;--color-calendar-graph-day-L2-bg:#40c463;--color-calendar-graph-day-L3-bg:#30a14e;--color-calendar-graph-day-L4-bg:#216e39;--color-calendar-halloween-graph-day-L1-bg:#ffee4a;--color-calendar-halloween-graph-day-L2-bg:#ffc501;--color-calendar-halloween-graph-day-L3-bg:#fe9600;--color-calendar-halloween-graph-day-L4-bg:#03001c;--color-calendar-winter-graph-day-L1-bg:#0a3069;--color-calendar-winter-graph-day-L2-bg:#0969da;--color-calendar-winter-graph-day-L3-bg:#54aeff;--color-calendar-winter-graph-day-L4-bg:#b6e3ff;--color-calendar-graph-day-L4-border:rgba(27,31,35,0.06);--color-calendar-graph-day-L3-border:rgba(27,31,35,0.06);--color-calendar-graph-day-L2-border:rgba(27,31,35,0.06);--color-calendar-graph-day-L1-border:rgba(27,31,35,0.06)}#metrics-end{width:100%}</style>
    <style/>
    <foreignObject x="0" y="0" width="100%" height="100%">
        <div xmlns="http://www.w3.org/1999/xhtml" xmlns:xlink="http://www.w3.org/1999/xlink" class="items-wrapper">
            <section>
                <h2 class="field">
                    <svg xmlns="http://www.w3.org/2000/svg" viewBox="0 0 16 16" width="16" height="16">
                        <path fill-rule="evenodd" d="M2.75 1.5a.25.25 0 00-.25.25v12.5c0 .138.112.25.25.25h10.5a.25.25 0 00.25-.25V4.664a.25.25 0 00-.073-.177l-2.914-2.914a.25.25 0 00-.177-.073H2.75zM1 1.75C1 .784 1.784 0 2.75 0h7.586c.464 0 .909.184 1.237.513l2.914 2.914c.329.328.513.773.513 1.237v9.586A1.75 1.75 0 0113.25 16H2.75A1.75 1.75 0 011 14.25V1.75zm7 1.5a.75.75 0 01.75.75v1.5h1.5a.75.75 0 010 1.5h-1.5v1.5a.75.75 0 01-1.5 0V7h-1.5a.75.75 0 010-1.5h1.5V4A.75.75 0 018 3.25zm-3 8a.75.75 0 01.75-.75h4.5a.75.75 0 010 1.5h-4.5a.75.75 0 01-.75-.75z"/>
                    </svg>
                    Lines of code pushed
                </h2>
                <div class="row">
                    <section>
                        <div class="field">
                            <svg xmlns="http://www.w3.org/2000/svg" viewBox="0 0 16 16" width="16" height="16">
                                <path fill-rule="evenodd" d="M8 5.5a2.5 2.5 0 100 5 2.5 2.5 0 000-5zM4 8a4 4 0 118 0 4 4 0 01-8 0z"/>
                            </svg>
                            <span class="diff-handle">Isaac7777-cpu/COMP2560-neuralgcm-lstm-tc-track-comparison</span>
                        </div>
                        <div class="field">
                            <svg xmlns="http://www.w3.org/2000/svg" viewBox="0 0 16 16" width="16" height="16">
                                <path fill-rule="evenodd" d="M8 5.5a2.5 2.5 0 100 5 2.5 2.5 0 000-5zM4 8a4 4 0 118 0 4 4 0 01-8 0z"/>
                            </svg>
                            <span class="diff-handle">Isaac7777-cpu/Megatron-LM</span>
                        </div>
                        <div class="field">
                            <svg xmlns="http://www.w3.org/2000/svg" viewBox="0 0 16 16" width="16" height="16">
                                <path fill-rule="evenodd" d="M8 5.5a2.5 2.5 0 100 5 2.5 2.5 0 000-5zM4 8a4 4 0 118 0 4 4 0 01-8 0z"/>
                            </svg>
                            <span class="diff-handle">Isaac7777-cpu/econ2026</span>
                        </div>
                        <div class="field">
                            <svg xmlns="http://www.w3.org/2000/svg" viewBox="0 0 16 16" width="16" height="16">
                                <path fill-rule="evenodd" d="M8 5.5a2.5 2.5 0 100 5 2.5 2.5 0 000-5zM4 8a4 4 0 118 0 4 4 0 01-8 0z"/>
                            </svg>
                            <span class="diff-handle">Isaac7777-cpu/comp3425-data-mining-notes</span>
                        </div>
                    </section>
                    <section>
                        <div class="field">
                            <div class="diff-box added"></div>
                            <div class="diff-box added"></div>
                            <div class="diff-box added"></div>
                            <div class="diff-box deleted"></div>
                            <div class="diff-box deleted"></div>
                            <div class="diff-stats">
                                <span class="added"> +3.46m</span>
                                <span class="deleted"> -3.27m</span>
                            </div>
                            <span> </span>
                        </div>
                        <div class="field">
                            <div class="diff-box added"></div>
                            <div class="diff-box added"></div>
                            <div class="diff-box added"></div>
                            <div class="diff-box deleted"></div>
                            <div class="diff-box deleted"></div>
                            <div class="diff-stats">
                                <span class="added">  +555k</span>
                                <span class="deleted">  -238k</span>
                            </div>
                            <span> </span>
                        </div>
                        <div class="field">
                            <div class="diff-box added"></div>
                            <div class="diff-box added"></div>
                            <div class="diff-box added"></div>
                            <div class="diff-box deleted"></div>
                            <div class="diff-box deleted"></div>
                            <div class="diff-stats">
                                <span class="added">  +283k</span>
                                <span class="deleted">  -267k</span>
                            </div>
                            <span> </span>
                        </div>
                        <div class="field">
                            <div class="diff-box added"></div>
                            <div class="diff-box added"></div>
                            <div class="diff-box added"></div>
                            <div class="diff-box added"></div>
                            <div class="diff-box deleted"></div>
                            <div class="diff-stats">
                                <span class="added"> +71.5k</span>
                                <span class="deleted"> -7.79k</span>
                            </div>
                            <span> </span>
                        </div>
                    </section>
                </div>
                <div class="row margin-bottom">
                    <h3 class="margin-lr-auto">Diff history</h3>
                    <svg xmlns="http://www.w3.org/2000/svg" width="480" height="315">
                        <g transform="translate(0,276)" fill="none" font-size="10" font-family="sans-serif" text-anchor="middle">
                            <path class="domain" stroke="currentColor" d="M39.5,6V0.5H441.5V6"/>
                            <g class="tick" opacity="1" transform="translate(100.90669642857142,0)">
                                <line stroke="currentColor" y2="6"/>
                                <text fill="currentColor" y="9" dy="0.71em" transform="translate(-5,5) rotate(-45)" style="text-anchor: end;">April</text>
                            </g>
                            <g class="tick" opacity="1" transform="translate(166.26160714285714,0)">
                                <line stroke="currentColor" y2="6"/>
                                <text fill="currentColor" y="9" dy="0.71em" transform="translate(-5,5) rotate(-45)" style="text-anchor: end;">July</text>
                            </g>
                            <g class="tick" opacity="1" transform="translate(232.3044642857143,0)">
                                <line stroke="currentColor" y2="6"/>
                                <text fill="currentColor" y="9" dy="0.71em" transform="translate(-5,5) rotate(-45)" style="text-anchor: end;">October</text>
                            </g>
                            <g class="tick" opacity="1" transform="translate(298.3174107142857,0)">
                                <line stroke="currentColor" y2="6"/>
                                <text fill="currentColor" y="9" dy="0.71em" transform="translate(-5,5) rotate(-45)" style="text-anchor: end;">2026</text>
                            </g>
                            <g class="tick" opacity="1" transform="translate(362.9245535714286,0)">
                                <line stroke="currentColor" y2="6"/>
                                <text fill="currentColor" y="9" dy="0.71em" transform="translate(-5,5) rotate(-45)" style="text-anchor: end;">April</text>
                            </g>
                            <g class="tick" opacity="1" transform="translate(428.27946428571425,0)">
                                <line stroke="currentColor" y2="6"/>
                                <text fill="currentColor" y="9" dy="0.71em" transform="translate(-5,5) rotate(-45)" style="text-anchor: end;">July</text>
                            </g>
                        </g>
                        <g transform="translate(39,0)" fill="none" font-size="10" font-family="sans-serif" text-anchor="end">
                            <path class="domain" stroke="currentColor" d="M-6,5.5H0.5V276.5H-6"/>
                            <g class="tick" opacity="1" transform="translate(0,39.130513231756204)">
                                <line stroke="currentColor" x2="-6"/>
                                <text fill="currentColor" x="-9" dy="0.32em">30k</text>
                            </g>
                            <g class="tick" opacity="1" transform="translate(0,73.08700882117081)">
                                <line stroke="currentColor" x2="-6"/>
                                <text fill="currentColor" x="-9" dy="0.32em">20k</text>
                            </g>
                            <g class="tick" opacity="1" transform="translate(0,107.04350441058538)">
                                <line stroke="currentColor" x2="-6"/>
                                <text fill="currentColor" x="-9" dy="0.32em">10k</text>
                            </g>
                            <g class="tick" opacity="1" transform="translate(0,141)">
                                <line stroke="currentColor" x2="-6"/>
                                <text fill="currentColor" x="-9" dy="0.32em">0.0</text>
                            </g>
                            <g class="tick" opacity="1" transform="translate(0,174.95649558941457)">
                                <line stroke="currentColor" x2="-6"/>
                                <text fill="currentColor" x="-9" dy="0.32em">−10k</text>
                            </g>
                            <g class="tick" opacity="1" transform="translate(0,208.9129911788292)">
                                <line stroke="currentColor" x2="-6"/>
                                <text fill="currentColor" x="-9" dy="0.32em">−20k</text>
                            </g>
                            <g class="tick" opacity="1" transform="translate(0,242.8694867682438)">
                                <line stroke="currentColor" x2="-6"/>
                                <text fill="currentColor" x="-9" dy="0.32em">−30k</text>
                            </g>
                        </g>
                        <path d="M39,140.5L44.025,140.5L49.05,140.5L54.075,140.5L59.1,140.5L64.125,140.5L69.15,140.5L74.175,140.5L79.2,140.5L84.225,140.5L89.25,140.5L94.275,140.5L99.3,140.5L104.325,140.5L109.35,140.5L114.375,140.5L119.4,140.5L124.425,140.5L129.45,140.5L134.475,140.5L139.5,140.5L144.525,140.5L149.55,140.5L154.575,140.5L159.6,140.5L164.625,140.5L169.65,140.5L174.675,140.5L179.7,140.5L184.725,140.5L189.75,140.5L194.775,140.5L199.8,140.5L204.825,140.5L209.85,140.5L214.875,140.5L219.9,140.5L224.925,140.5L229.95,140.5L234.975,140.5L240,140.5L245.025,140.5L250.05,140.5L255.075,140.5L260.1,140.5L265.125,140.5L270.15,140.5L275.175,140.5L280.2,140.5L285.225,140.5L290.25,140.5L295.275,140.5L300.3,140.5L305.325,140.5L310.35,140.5L315.375,140.5L320.4,140.5L325.425,140.5L330.45,140.5L335.475,140.5L340.5,140.5L345.525,140.5L350.55,140.5L355.575,140.5L360.6,140.5L365.625,140.5L370.65,140.5L375.675,140.5L380.7,140.5L385.725,140.5L390.75,140.5L395.775,140.5L400.8,140.5L405.825,140.5L410.85,140.5L415.875,140.5L420.9,140.5L425.925,140.5L430.95,140.5L435.975,140.5L441,140.5L441,140.449L435.975,138.527L430.95,139.006L425.925,139.841L420.9,139.98L415.875,139.899L410.85,140.133L405.825,139.902L400.8,135.284L395.775,135.699L390.75,139.76L385.725,94.859L380.7,136.435L375.675,137.369L370.65,138.823L365.625,138.15L360.6,125.817L355.575,131.892L350.55,117.79L345.525,133.634L340.5,132.819L335.475,134.503L330.45,133.627L325.425,117.824L320.4,134.096L315.375,139.702L310.35,134.707L305.325,132.575L300.3,134.164L295.275,129.043L290.25,138.819L285.225,138.541L280.2,138.941L275.175,137.539L270.15,135.091L265.125,128.052L260.1,139.899L255.075,139.651L250.05,118.36L245.025,129.899L240,132.347L234.975,139.831L229.95,137.244L224.925,78.044L219.9,138.761L214.875,134.71L209.85,138.531L204.825,139.189L199.8,136.71L194.775,135.006L189.75,137.271L184.725,137.176L179.7,137.457L174.675,136.378L169.65,29.106L164.625,129.542L159.6,137.369L154.575,128.116L149.55,12.419L144.525,139.257L139.5,93.202L134.475,112.639L129.45,138.972L124.425,76.889L119.4,118.51L114.375,113.518L109.35,105.012L104.325,125.613L99.3,138.188L94.275,132.418L89.25,5L84.225,99.844L79.2,95.735L74.175,97.368L69.15,111.325L64.125,140.381L59.1,140.052L54.075,138.86L49.05,135.128L44.025,115.542L39,131.753Z" fill="rgb(63, 185, 80)"/>
                        <path d="M39,140.5L44.025,140.5L49.05,140.5L54.075,140.5L59.1,140.5L64.125,140.5L69.15,140.5L74.175,140.5L79.2,140.5L84.225,140.5L89.25,140.5L94.275,140.5L99.3,140.5L104.325,140.5L109.35,140.5L114.375,140.5L119.4,140.5L124.425,140.5L129.45,140.5L134.475,140.5L139.5,140.5L144.525,140.5L149.55,140.5L154.575,140.5L159.6,140.5L164.625,140.5L169.65,140.5L174.675,140.5L179.7,140.5L184.725,140.5L189.75,140.5L194.775,140.5L199.8,140.5L204.825,140.5L209.85,140.5L214.875,140.5L219.9,140.5L224.925,140.5L229.95,140.5L234.975,140.5L240,140.5L245.025,140.5L250.05,140.5L255.075,140.5L260.1,140.5L265.125,140.5L270.15,140.5L275.175,140.5L280.2,140.5L285.225,140.5L290.25,140.5L295.275,140.5L300.3,140.5L305.325,140.5L310.35,140.5L315.375,140.5L320.4,140.5L325.425,140.5L330.45,140.5L335.475,140.5L340.5,140.5L345.525,140.5L350.55,140.5L355.575,140.5L360.6,140.5L365.625,140.5L370.65,140.5L375.675,140.5L380.7,140.5L385.725,140.5L390.75,140.5L395.775,140.5L400.8,140.5L405.825,140.5L410.85,140.5L415.875,140.5L420.9,140.5L425.925,140.5L430.95,140.5L435.975,140.5L441,140.5L441,140.534L435.975,141.974L430.95,141.994L425.925,141.179L420.9,140.999L415.875,141.101L410.85,140.867L405.825,141.098L400.8,142.711L395.775,141.889L390.75,141.169L385.725,142.762L380.7,141.648L375.675,142.286L370.65,141.332L365.625,141.57L360.6,141.413L355.575,144.344L350.55,143.417L345.525,142.595L340.5,142.351L335.475,141.93L330.45,142.734L325.425,149.729L320.4,142.762L315.375,141.295L310.35,143.519L305.325,143.909L300.3,141.977L295.275,142.558L290.25,141.379L285.225,142.442L280.2,141.621L275.175,142.391L270.15,142.269L265.125,142.398L260.1,141.101L255.075,141.369L250.05,145.234L245.025,142.809L240,141.295L234.975,141.169L229.95,142.442L224.925,141.59L219.9,141.668L214.875,141.76L209.85,142.999L204.825,141.284L199.8,141.301L194.775,142.279L189.75,142.402L184.725,142.211L179.7,142.697L174.675,141.604L169.65,142.772L164.625,144.972L159.6,142.15L154.575,146.354L149.55,154.398L144.525,141.722L139.5,155.909L134.475,144.497L129.45,141.413L124.425,187.798L119.4,140.935L114.375,190.803L109.35,141.288L104.325,141.281L99.3,142.089L94.275,140.52L89.25,185.706L84.225,143.651L79.2,153.291L74.175,147.919L69.15,140.894L64.125,140.548L59.1,140.554L54.075,140.816L49.05,145.064L44.025,141.172L39,142.599Z" fill="rgb(218, 54, 51)"/>
                    </svg>
                </div>
            </section>
        </div>
        <div xmlns="http://www.w3.org/1999/xhtml" id="metrics-end"></div>
    </foreignObject>
</svg>