<svg xmlns="http://www.w3.org/2000/svg" width="480" height="516" class="">
    <defs>
        <style/>
    </defs>
    <style>@keyframes animation-gauge{0%{stroke-dasharray:0 329}}@keyframes animation-rainbow{0%,to{color:#7f00ff;fill:#7f00ff}14%{color:#a933ff;fill:#a933ff}29%{color:#007fff;fill:#007fff}43%{color:#00ff7f;fill:#00ff7f}57%{color:#ff0;fill:#ff0}71%{color:#ff7f00;fill:#ff7f00}86%{color:red;fill:red}}svg{font-family:-apple-system,BlinkMacSystemFont,Segoe UI,Helvetica,Arial,sans-serif,Apple Color Emoji,Segoe UI Emoji;color:#777}h2,h3{margin:8px 0 2px;padding:0;color:#0366d6;font-weight:400}h2 svg,h3 svg{fill:currentColor}h2{font-size:16px}h3,svg{font-size:14px}section&gt;.field{margin-left:5px;margin-right:5px}.field{display:flex;align-items:center;margin-bottom:2px;white-space:nowrap}.field svg{margin:0 8px;fill:#959da5;flex-shrink:0}.row{display:flex;flex-wrap:wrap}.row section{flex:1 1 0}.margin-bottom{margin-bottom:16px}.margin-lr-auto{margin-left:auto;margin-right:auto}.diff-handle{color:#58a6ff;max-width:200px;text-overflow:ellipsis;overflow:hidden}.diff-box{display:inline-block;width:8px;height:8px;margin-left:1px;background-color:rgba(110,118,129,.4);border:1px solid rgba(246,240,251,.1)}.diff-box:first-child{margin-left:9px}.diff-box.added{background-color:#3fb950}.diff-box.deleted{background-color:#da3633}.diff-stats,code,span.code{font-family:SFMono-Regular,Consolas,Liberation Mono,Menlo,monospace}.diff-stats{margin-left:4px;font-weight:700;font-size:12px;white-space:nowrap}.added{color:#3fb950}.deleted{color:#da3633}code,span.code{background-color:#7777771f;padding:1px 5px;font-size:80%;border-radius:6px;color:#777}code{display:inline-block}span.code{margin:0 4px -3px}:root{--color-calendar-graph-day-bg:#ebedf0;--color-calendar-graph-day-border:rgba(27,31,35,0.06);--color-calendar-graph-day-L1-bg:#9be9a8;--color-calendar-graph-day-L2-bg:#40c463;--color-calendar-graph-day-L3-bg:#30a14e;--color-calendar-graph-day-L4-bg:#216e39;--color-calendar-halloween-graph-day-L1-bg:#ffee4a;--color-calendar-halloween-graph-day-L2-bg:#ffc501;--color-calendar-halloween-graph-day-L3-bg:#fe9600;--color-calendar-halloween-graph-day-L4-bg:#03001c;--color-calendar-winter-graph-day-L1-bg:#0a3069;--color-calendar-winter-graph-day-L2-bg:#0969da;--color-calendar-winter-graph-day-L3-bg:#54aeff;--color-calendar-winter-graph-day-L4-bg:#b6e3ff;--color-calendar-graph-day-L4-border:rgba(27,31,35,0.06);--color-calendar-graph-day-L3-border:rgba(27,31,35,0.06);--color-calendar-graph-day-L2-border:rgba(27,31,35,0.06);--color-calendar-graph-day-L1-border:rgba(27,31,35,0.06)}#metrics-end{width:100%}</style>
    <style/>
    <foreignObject x="0" y="0" width="100%" height="100%">
        <div xmlns="http://www.w3.org/1999/xhtml" xmlns:xlink="http://www.w3.org/1999/xlink" class="items-wrapper">
            <section>
                <h2 class="field">
                    <svg xmlns="http://www.w3.org/2000/svg" viewBox="0 0 16 16" width="16" height="16">
                        <path fill-rule="evenodd" d="M2.75 1.5a.25.25 0 00-.25.25v12.5c0 .138.112.25.25.25h10.5a.25.25 0 00.25-.25V4.664a.25.25 0 00-.073-.177l-2.914-2.914a.25.25 0 00-.177-.073H2.75zM1 1.75C1 .784 1.784 0 2.75 0h7.586c.464 0 .909.184 1.237.513l2.914 2.914c.329.328.513.773.513 1.237v9.586A1.75 1.75 0 0113.25 16H2.75A1.75 1.75 0 011 14.25V1.75zm7 1.5a.75.75 0 01.75.75v1.5h1.5a.75.75 0 010 1.5h-1.5v1.5a.75.75 0 01-1.5 0V7h-1.5a.75.75 0 010-1.5h1.5V4A.75.75 0 018 3.25zm-3 8a.75.75 0 01.75-.75h4.5a.75.75 0 010 1.5h-4.5a.75.75 0 01-.75-.75z"/>
                    </svg>
                    Lines of code pushed
                </h2>
                <div class="row">
                    <section>
                        <div class="field">
                            <svg xmlns="http://www.w3.org/2000/svg" viewBox="0 0 16 16" width="16" height="16">
                                <path fill-rule="evenodd" d="M8 5.5a2.5 2.5 0 100 5 2.5 2.5 0 000-5zM4 8a4 4 0 118 0 4 4 0 01-8 0z"/>
                            </svg>
                            <span class="diff-handle">Isaac7777-cpu/COMP2560-neuralgcm-lstm-tc-track-comparison</span>
                        </div>
                        <div class="field">
                            <svg xmlns="http://www.w3.org/2000/svg" viewBox="0 0 16 16" width="16" height="16">
                                <path fill-rule="evenodd" d="M8 5.5a2.5 2.5 0 100 5 2.5 2.5 0 000-5zM4 8a4 4 0 118 0 4 4 0 01-8 0z"/>
                            </svg>
                            <span class="diff-handle">Isaac7777-cpu/Megatron-LM</span>
                        </div>
                        <div class="field">
                            <svg xmlns="http://www.w3.org/2000/svg" viewBox="0 0 16 16" width="16" height="16">
                                <path fill-rule="evenodd" d="M8 5.5a2.5 2.5 0 100 5 2.5 2.5 0 000-5zM4 8a4 4 0 118 0 4 4 0 01-8 0z"/>
                            </svg>
                            <span class="diff-handle">Isaac7777-cpu/econ2026</span>
                        </div>
                        <div class="field">
                            <svg xmlns="http://www.w3.org/2000/svg" viewBox="0 0 16 16" width="16" height="16">
                                <path fill-rule="evenodd" d="M8 5.5a2.5 2.5 0 100 5 2.5 2.5 0 000-5zM4 8a4 4 0 118 0 4 4 0 01-8 0z"/>
                            </svg>
                            <span class="diff-handle">Isaac7777-cpu/comp3425-data-mining-notes</span>
                        </div>
                    </section>
                    <section>
                        <div class="field">
                            <div class="diff-box added"></div>
                            <div class="diff-box added"></div>
                            <div class="diff-box added"></div>
                            <div class="diff-box deleted"></div>
                            <div class="diff-box deleted"></div>
                            <div class="diff-stats">
                                <span class="added"> +3.46m</span>
                                <span class="deleted"> -3.27m</span>
                            </div>
                            <span> </span>
                        </div>
                        <div class="field">
                            <div class="diff-box added"></div>
                            <div class="diff-box added"></div>
                            <div class="diff-box added"></div>
                            <div class="diff-box deleted"></div>
                            <div class="diff-box deleted"></div>
                            <div class="diff-stats">
                                <span class="added">  +554k</span>
                                <span class="deleted">  -239k</span>
                            </div>
                            <span> </span>
                        </div>
                        <div class="field">
                            <div class="diff-box added"></div>
                            <div class="diff-box added"></div>
                            <div class="diff-box added"></div>
                            <div class="diff-box deleted"></div>
                            <div class="diff-box deleted"></div>
                            <div class="diff-stats">
                                <span class="added">  +283k</span>
                                <span class="deleted">  -267k</span>
                            </div>
                            <span> </span>
                        </div>
                        <div class="field">
                            <div class="diff-box added"></div>
                            <div class="diff-box added"></div>
                            <div class="diff-box added"></div>
                            <div class="diff-box added"></div>
                            <div class="diff-box deleted"></div>
                            <div class="diff-stats">
                                <span class="added"> +71.5k</span>
                                <span class="deleted"> -7.79k</span>
                            </div>
                            <span> </span>
                        </div>
                    </section>
                </div>
                <div class="row margin-bottom">
                    <h3 class="margin-lr-auto">Diff history</h3>
                    <svg xmlns="http://www.w3.org/2000/svg" width="480" height="315">
                        <g transform="translate(0,276)" fill="none" font-size="10" font-family="sans-serif" text-anchor="middle">
                            <path class="domain" stroke="currentColor" d="M39.5,6V0.5H441.5V6"/>
                            <g class="tick" opacity="1" transform="translate(98.68717728055077,0)">
                                <line stroke="currentColor" y2="6"/>
                                <text fill="currentColor" y="9" dy="0.71em" transform="translate(-5,5) rotate(-45)" style="text-anchor: end;">April</text>
                            </g>
                            <g class="tick" opacity="1" transform="translate(161.67986230636834,0)">
                                <line stroke="currentColor" y2="6"/>
                                <text fill="currentColor" y="9" dy="0.71em" transform="translate(-5,5) rotate(-45)" style="text-anchor: end;">July</text>
                            </g>
                            <g class="tick" opacity="1" transform="translate(225.3356282271945,0)">
                                <line stroke="currentColor" y2="6"/>
                                <text fill="currentColor" y="9" dy="0.71em" transform="translate(-5,5) rotate(-45)" style="text-anchor: end;">October</text>
                            </g>
                            <g class="tick" opacity="1" transform="translate(288.96256454388987,0)">
                                <line stroke="currentColor" y2="6"/>
                                <text fill="currentColor" y="9" dy="0.71em" transform="translate(-5,5) rotate(-45)" style="text-anchor: end;">2026</text>
                            </g>
                            <g class="tick" opacity="1" transform="translate(351.23450946643715,0)">
                                <line stroke="currentColor" y2="6"/>
                                <text fill="currentColor" y="9" dy="0.71em" transform="translate(-5,5) rotate(-45)" style="text-anchor: end;">April</text>
                            </g>
                            <g class="tick" opacity="1" transform="translate(414.22719449225474,0)">
                                <line stroke="currentColor" y2="6"/>
                                <text fill="currentColor" y="9" dy="0.71em" transform="translate(-5,5) rotate(-45)" style="text-anchor: end;">July</text>
                            </g>
                        </g>
                        <g transform="translate(39,0)" fill="none" font-size="10" font-family="sans-serif" text-anchor="end">
                            <path class="domain" stroke="currentColor" d="M-6,5.5H0.5V276.5H-6"/>
                            <g class="tick" opacity="1" transform="translate(0,39.130513231756204)">
                                <line stroke="currentColor" x2="-6"/>
                                <text fill="currentColor" x="-9" dy="0.32em">30k</text>
                            </g>
                            <g class="tick" opacity="1" transform="translate(0,73.08700882117081)">
                                <line stroke="currentColor" x2="-6"/>
                                <text fill="currentColor" x="-9" dy="0.32em">20k</text>
                            </g>
                            <g class="tick" opacity="1" transform="translate(0,107.04350441058538)">
                                <line stroke="currentColor" x2="-6"/>
                                <text fill="currentColor" x="-9" dy="0.32em">10k</text>
                            </g>
                            <g class="tick" opacity="1" transform="translate(0,141)">
                                <line stroke="currentColor" x2="-6"/>
                                <text fill="currentColor" x="-9" dy="0.32em">0.0</text>
                            </g>
                            <g class="tick" opacity="1" transform="translate(0,174.95649558941457)">
                                <line stroke="currentColor" x2="-6"/>
                                <text fill="currentColor" x="-9" dy="0.32em">−10k</text>
                            </g>
                            <g class="tick" opacity="1" transform="translate(0,208.9129911788292)">
                                <line stroke="currentColor" x2="-6"/>
                                <text fill="currentColor" x="-9" dy="0.32em">−20k</text>
                            </g>
                            <g class="tick" opacity="1" transform="translate(0,242.8694867682438)">
                                <line stroke="currentColor" x2="-6"/>
                                <text fill="currentColor" x="-9" dy="0.32em">−30k</text>
                            </g>
                        </g>
                        <path d="M39,140.5L43.843,140.5L48.687,140.5L53.53,140.5L58.373,140.5L63.217,140.5L68.06,140.5L72.904,140.5L77.747,140.5L82.59,140.5L87.434,140.5L92.277,140.5L97.12,140.5L101.964,140.5L106.807,140.5L111.651,140.5L116.494,140.5L121.337,140.5L126.181,140.5L131.024,140.5L135.867,140.5L145.554,140.5L150.398,140.5L155.241,140.5L160.084,140.5L164.928,140.5L169.771,140.5L174.614,140.5L179.458,140.5L184.301,140.5L189.145,140.5L193.988,140.5L198.831,140.5L203.675,140.5L208.518,140.5L213.361,140.5L218.205,140.5L223.048,140.5L232.735,140.5L237.578,140.5L242.422,140.5L256.952,140.5L261.795,140.5L266.639,140.5L271.482,140.5L276.325,140.5L281.169,140.5L286.012,140.5L290.855,140.5L295.699,140.5L300.542,140.5L305.386,140.5L310.229,140.5L315.072,140.5L319.916,140.5L324.759,140.5L329.602,140.5L334.446,140.5L339.289,140.5L344.133,140.5L348.976,140.5L353.819,140.5L358.663,140.5L363.506,140.5L368.349,140.5L373.193,140.5L378.036,140.5L382.88,140.5L387.723,140.5L426.47,140.5L431.313,140.5L436.157,140.5L441,140.5L441,137.987L436.157,135.206L431.313,136.547L426.47,135.019L387.723,136.154L382.88,136.612L378.036,140.425L373.193,96.73L368.349,137.244L363.506,138.958L358.663,139.559L353.819,139.06L348.976,126.615L344.133,132.884L339.289,118.7L334.446,134.649L329.602,133.923L324.759,135.41L319.916,134.588L315.072,118.7L310.229,134.955L305.386,140.459L300.542,135.563L295.699,133.586L290.855,135.118L286.012,129.933L281.169,139.682L276.325,139.335L271.482,139.583L266.639,139.118L261.795,135.824L256.952,128.541L242.422,121.321L237.578,130.897L232.735,133.019L223.048,138.133L218.205,78.842L213.361,139.556L208.518,135.59L203.675,139.261L198.831,139.991L193.988,137.502L189.145,135.936L184.301,138.062L179.458,138.191L174.614,138.228L169.771,137.318L164.928,30.141L160.084,130.554L155.241,138.228L150.398,130.5L145.554,13.374L135.867,94.16L131.024,113.722L126.181,139.882L121.337,84.197L116.494,118.51L111.651,113.518L106.807,105.012L101.964,125.613L97.12,138.188L92.277,132.418L87.434,5L82.59,99.844L77.747,95.735L72.904,97.368L68.06,111.325L63.217,140.381L58.373,140.052L53.53,138.86L48.687,135.128L43.843,115.542L39,131.753Z" fill="rgb(63, 185, 80)"/>
                        <path d="M39,140.5L43.843,140.5L48.687,140.5L53.53,140.5L58.373,140.5L63.217,140.5L68.06,140.5L72.904,140.5L77.747,140.5L82.59,140.5L87.434,140.5L92.277,140.5L97.12,140.5L101.964,140.5L106.807,140.5L111.651,140.5L116.494,140.5L121.337,140.5L126.181,140.5L131.024,140.5L135.867,140.5L145.554,140.5L150.398,140.5L155.241,140.5L160.084,140.5L164.928,140.5L169.771,140.5L174.614,140.5L179.458,140.5L184.301,140.5L189.145,140.5L193.988,140.5L198.831,140.5L203.675,140.5L208.518,140.5L213.361,140.5L218.205,140.5L223.048,140.5L232.735,140.5L237.578,140.5L242.422,140.5L256.952,140.5L261.795,140.5L266.639,140.5L271.482,140.5L276.325,140.5L281.169,140.5L286.012,140.5L290.855,140.5L295.699,140.5L300.542,140.5L305.386,140.5L310.229,140.5L315.072,140.5L319.916,140.5L324.759,140.5L329.602,140.5L334.446,140.5L339.289,140.5L344.133,140.5L348.976,140.5L353.819,140.5L358.663,140.5L363.506,140.5L368.349,140.5L373.193,140.5L378.036,140.5L382.88,140.5L387.723,140.5L426.47,140.5L431.313,140.5L436.157,140.5L441,140.5L441,141.216L436.157,141.845L431.313,141.536L426.47,141.033L387.723,141.821L382.88,140.975L378.036,140.524L373.193,140.87L368.349,140.86L363.506,140.697L358.663,140.595L353.819,140.66L348.976,140.595L344.133,143.373L339.289,142.486L334.446,141.58L329.602,141.247L324.759,141.023L319.916,141.773L315.072,148.874L310.229,141.902L305.386,140.517L300.542,142.663L295.699,142.897L290.855,141.043L286.012,141.648L281.169,140.537L276.325,141.627L271.482,140.999L266.639,140.792L261.795,141.556L256.952,141.909L242.422,142.293L237.578,141.797L232.735,140.622L223.048,141.553L218.205,140.792L213.361,140.874L208.518,140.88L203.675,142.249L198.831,140.503L193.988,140.51L189.145,141.349L184.301,141.59L179.458,141.216L174.614,141.906L169.771,140.663L164.928,141.736L160.084,143.981L155.241,141.271L150.398,143.97L145.554,153.444L135.867,154.932L131.024,143.413L126.181,140.503L121.337,186.358L116.494,140.935L111.651,190.803L106.807,141.288L101.964,141.281L97.12,142.089L92.277,140.52L87.434,185.706L82.59,143.651L77.747,153.291L72.904,147.919L68.06,140.894L63.217,140.548L58.373,140.554L53.53,140.816L48.687,145.064L43.843,141.172L39,142.599Z" fill="rgb(218, 54, 51)"/>
                    </svg>
                </div>
            </section>
        </div>
        <div xmlns="http://www.w3.org/1999/xhtml" id="metrics-end"></div>
    </foreignObject>
</svg>