<svg xmlns="http://www.w3.org/2000/svg" width="480" height="516" class="">
    <defs>
        <style/>
    </defs>
    <style>@keyframes animation-gauge{0%{stroke-dasharray:0 329}}@keyframes animation-rainbow{0%,to{color:#7f00ff;fill:#7f00ff}14%{color:#a933ff;fill:#a933ff}29%{color:#007fff;fill:#007fff}43%{color:#00ff7f;fill:#00ff7f}57%{color:#ff0;fill:#ff0}71%{color:#ff7f00;fill:#ff7f00}86%{color:red;fill:red}}svg{font-family:-apple-system,BlinkMacSystemFont,Segoe UI,Helvetica,Arial,sans-serif,Apple Color Emoji,Segoe UI Emoji;color:#777}h2,h3{margin:8px 0 2px;padding:0;color:#0366d6;font-weight:400}h2 svg,h3 svg{fill:currentColor}h2{font-size:16px}h3,svg{font-size:14px}section&gt;.field{margin-left:5px;margin-right:5px}.field{display:flex;align-items:center;margin-bottom:2px;white-space:nowrap}.field svg{margin:0 8px;fill:#959da5;flex-shrink:0}.row{display:flex;flex-wrap:wrap}.row section{flex:1 1 0}.margin-bottom{margin-bottom:16px}.margin-lr-auto{margin-left:auto;margin-right:auto}.diff-handle{color:#58a6ff;max-width:200px;text-overflow:ellipsis;overflow:hidden}.diff-box{display:inline-block;width:8px;height:8px;margin-left:1px;background-color:rgba(110,118,129,.4);border:1px solid rgba(246,240,251,.1)}.diff-box:first-child{margin-left:9px}.diff-box.added{background-color:#3fb950}.diff-box.deleted{background-color:#da3633}.diff-stats,code,span.code{font-family:SFMono-Regular,Consolas,Liberation Mono,Menlo,monospace}.diff-stats{margin-left:4px;font-weight:700;font-size:12px;white-space:nowrap}.added{color:#3fb950}.deleted{color:#da3633}code,span.code{background-color:#7777771f;padding:1px 5px;font-size:80%;border-radius:6px;color:#777}code{display:inline-block}span.code{margin:0 4px -3px}:root{--color-calendar-graph-day-bg:#ebedf0;--color-calendar-graph-day-border:rgba(27,31,35,0.06);--color-calendar-graph-day-L1-bg:#9be9a8;--color-calendar-graph-day-L2-bg:#40c463;--color-calendar-graph-day-L3-bg:#30a14e;--color-calendar-graph-day-L4-bg:#216e39;--color-calendar-halloween-graph-day-L1-bg:#ffee4a;--color-calendar-halloween-graph-day-L2-bg:#ffc501;--color-calendar-halloween-graph-day-L3-bg:#fe9600;--color-calendar-halloween-graph-day-L4-bg:#03001c;--color-calendar-winter-graph-day-L1-bg:#0a3069;--color-calendar-winter-graph-day-L2-bg:#0969da;--color-calendar-winter-graph-day-L3-bg:#54aeff;--color-calendar-winter-graph-day-L4-bg:#b6e3ff;--color-calendar-graph-day-L4-border:rgba(27,31,35,0.06);--color-calendar-graph-day-L3-border:rgba(27,31,35,0.06);--color-calendar-graph-day-L2-border:rgba(27,31,35,0.06);--color-calendar-graph-day-L1-border:rgba(27,31,35,0.06)}#metrics-end{width:100%}</style>
    <style/>
    <foreignObject x="0" y="0" width="100%" height="100%">
        <div xmlns="http://www.w3.org/1999/xhtml" xmlns:xlink="http://www.w3.org/1999/xlink" class="items-wrapper">
            <section>
                <h2 class="field">
                    <svg xmlns="http://www.w3.org/2000/svg" viewBox="0 0 16 16" width="16" height="16">
                        <path fill-rule="evenodd" d="M2.75 1.5a.25.25 0 00-.25.25v12.5c0 .138.112.25.25.25h10.5a.25.25 0 00.25-.25V4.664a.25.25 0 00-.073-.177l-2.914-2.914a.25.25 0 00-.177-.073H2.75zM1 1.75C1 .784 1.784 0 2.75 0h7.586c.464 0 .909.184 1.237.513l2.914 2.914c.329.328.513.773.513 1.237v9.586A1.75 1.75 0 0113.25 16H2.75A1.75 1.75 0 011 14.25V1.75zm7 1.5a.75.75 0 01.75.75v1.5h1.5a.75.75 0 010 1.5h-1.5v1.5a.75.75 0 01-1.5 0V7h-1.5a.75.75 0 010-1.5h1.5V4A.75.75 0 018 3.25zm-3 8a.75.75 0 01.75-.75h4.5a.75.75 0 010 1.5h-4.5a.75.75 0 01-.75-.75z"/>
                    </svg>
                    Lines of code pushed
                </h2>
                <div class="row">
                    <section>
                        <div class="field">
                            <svg xmlns="http://www.w3.org/2000/svg" viewBox="0 0 16 16" width="16" height="16">
                                <path fill-rule="evenodd" d="M8 5.5a2.5 2.5 0 100 5 2.5 2.5 0 000-5zM4 8a4 4 0 118 0 4 4 0 01-8 0z"/>
                            </svg>
                            <span class="diff-handle">Isaac7777-cpu/COMP2560-neuralgcm-lstm-tc-track-comparison</span>
                        </div>
                        <div class="field">
                            <svg xmlns="http://www.w3.org/2000/svg" viewBox="0 0 16 16" width="16" height="16">
                                <path fill-rule="evenodd" d="M8 5.5a2.5 2.5 0 100 5 2.5 2.5 0 000-5zM4 8a4 4 0 118 0 4 4 0 01-8 0z"/>
                            </svg>
                            <span class="diff-handle">Isaac7777-cpu/Megatron-LM</span>
                        </div>
                        <div class="field">
                            <svg xmlns="http://www.w3.org/2000/svg" viewBox="0 0 16 16" width="16" height="16">
                                <path fill-rule="evenodd" d="M8 5.5a2.5 2.5 0 100 5 2.5 2.5 0 000-5zM4 8a4 4 0 118 0 4 4 0 01-8 0z"/>
                            </svg>
                            <span class="diff-handle">Isaac7777-cpu/econ2026</span>
                        </div>
                        <div class="field">
                            <svg xmlns="http://www.w3.org/2000/svg" viewBox="0 0 16 16" width="16" height="16">
                                <path fill-rule="evenodd" d="M8 5.5a2.5 2.5 0 100 5 2.5 2.5 0 000-5zM4 8a4 4 0 118 0 4 4 0 01-8 0z"/>
                            </svg>
                            <span class="diff-handle">Isaac7777-cpu/comp3425-data-mining-notes</span>
                        </div>
                    </section>
                    <section>
                        <div class="field">
                            <div class="diff-box added"></div>
                            <div class="diff-box added"></div>
                            <div class="diff-box added"></div>
                            <div class="diff-box deleted"></div>
                            <div class="diff-box deleted"></div>
                            <div class="diff-stats">
                                <span class="added"> +3.46m</span>
                                <span class="deleted"> -3.27m</span>
                            </div>
                            <span> </span>
                        </div>
                        <div class="field">
                            <div class="diff-box added"></div>
                            <div class="diff-box added"></div>
                            <div class="diff-box added"></div>
                            <div class="diff-box deleted"></div>
                            <div class="diff-box deleted"></div>
                            <div class="diff-stats">
                                <span class="added">  +555k</span>
                                <span class="deleted">  -238k</span>
                            </div>
                            <span> </span>
                        </div>
                        <div class="field">
                            <div class="diff-box added"></div>
                            <div class="diff-box added"></div>
                            <div class="diff-box added"></div>
                            <div class="diff-box deleted"></div>
                            <div class="diff-box deleted"></div>
                            <div class="diff-stats">
                                <span class="added">  +283k</span>
                                <span class="deleted">  -267k</span>
                            </div>
                            <span> </span>
                        </div>
                        <div class="field">
                            <div class="diff-box added"></div>
                            <div class="diff-box added"></div>
                            <div class="diff-box added"></div>
                            <div class="diff-box added"></div>
                            <div class="diff-box deleted"></div>
                            <div class="diff-stats">
                                <span class="added"> +71.5k</span>
                                <span class="deleted"> -7.79k</span>
                            </div>
                            <span> </span>
                        </div>
                    </section>
                </div>
                <div class="row margin-bottom">
                    <h3 class="margin-lr-auto">Diff history</h3>
                    <svg xmlns="http://www.w3.org/2000/svg" width="480" height="315">
                        <g transform="translate(0,276)" fill="none" font-size="10" font-family="sans-serif" text-anchor="middle">
                            <path class="domain" stroke="currentColor" d="M39.5,6V0.5H441.5V6"/>
                            <g class="tick" opacity="1" transform="translate(100.14858906525572,0)">
                                <line stroke="currentColor" y2="6"/>
                                <text fill="currentColor" y="9" dy="0.71em" transform="translate(-5,5) rotate(-45)" style="text-anchor: end;">April</text>
                            </g>
                            <g class="tick" opacity="1" transform="translate(164.69664902998235,0)">
                                <line stroke="currentColor" y2="6"/>
                                <text fill="currentColor" y="9" dy="0.71em" transform="translate(-5,5) rotate(-45)" style="text-anchor: end;">July</text>
                            </g>
                            <g class="tick" opacity="1" transform="translate(229.9241622574956,0)">
                                <line stroke="currentColor" y2="6"/>
                                <text fill="currentColor" y="9" dy="0.71em" transform="translate(-5,5) rotate(-45)" style="text-anchor: end;">October</text>
                            </g>
                            <g class="tick" opacity="1" transform="translate(295.1221340388007,0)">
                                <line stroke="currentColor" y2="6"/>
                                <text fill="currentColor" y="9" dy="0.71em" transform="translate(-5,5) rotate(-45)" style="text-anchor: end;">2026</text>
                            </g>
                            <g class="tick" opacity="1" transform="translate(358.9316578483245,0)">
                                <line stroke="currentColor" y2="6"/>
                                <text fill="currentColor" y="9" dy="0.71em" transform="translate(-5,5) rotate(-45)" style="text-anchor: end;">April</text>
                            </g>
                            <g class="tick" opacity="1" transform="translate(423.47971781305114,0)">
                                <line stroke="currentColor" y2="6"/>
                                <text fill="currentColor" y="9" dy="0.71em" transform="translate(-5,5) rotate(-45)" style="text-anchor: end;">July</text>
                            </g>
                        </g>
                        <g transform="translate(39,0)" fill="none" font-size="10" font-family="sans-serif" text-anchor="end">
                            <path class="domain" stroke="currentColor" d="M-6,5.5H0.5V276.5H-6"/>
                            <g class="tick" opacity="1" transform="translate(0,39.130513231756204)">
                                <line stroke="currentColor" x2="-6"/>
                                <text fill="currentColor" x="-9" dy="0.32em">30k</text>
                            </g>
                            <g class="tick" opacity="1" transform="translate(0,73.08700882117081)">
                                <line stroke="currentColor" x2="-6"/>
                                <text fill="currentColor" x="-9" dy="0.32em">20k</text>
                            </g>
                            <g class="tick" opacity="1" transform="translate(0,107.04350441058538)">
                                <line stroke="currentColor" x2="-6"/>
                                <text fill="currentColor" x="-9" dy="0.32em">10k</text>
                            </g>
                            <g class="tick" opacity="1" transform="translate(0,141)">
                                <line stroke="currentColor" x2="-6"/>
                                <text fill="currentColor" x="-9" dy="0.32em">0.0</text>
                            </g>
                            <g class="tick" opacity="1" transform="translate(0,174.95649558941457)">
                                <line stroke="currentColor" x2="-6"/>
                                <text fill="currentColor" x="-9" dy="0.32em">−10k</text>
                            </g>
                            <g class="tick" opacity="1" transform="translate(0,208.9129911788292)">
                                <line stroke="currentColor" x2="-6"/>
                                <text fill="currentColor" x="-9" dy="0.32em">−20k</text>
                            </g>
                            <g class="tick" opacity="1" transform="translate(0,242.8694867682438)">
                                <line stroke="currentColor" x2="-6"/>
                                <text fill="currentColor" x="-9" dy="0.32em">−30k</text>
                            </g>
                        </g>
                        <path d="M39,140.5L43.963,140.5L48.926,140.5L53.889,140.5L58.852,140.5L63.815,140.5L68.778,140.5L73.741,140.5L78.704,140.5L83.667,140.5L88.63,140.5L93.593,140.5L98.556,140.5L103.519,140.5L108.481,140.5L113.444,140.5L118.407,140.5L123.37,140.5L128.333,140.5L133.296,140.5L138.259,140.5L148.185,140.5L153.148,140.5L158.111,140.5L163.074,140.5L168.037,140.5L173,140.5L177.963,140.5L182.926,140.5L187.889,140.5L192.852,140.5L197.815,140.5L202.778,140.5L207.741,140.5L212.704,140.5L217.667,140.5L222.63,140.5L227.593,140.5L237.519,140.5L242.481,140.5L247.444,140.5L262.333,140.5L267.296,140.5L272.259,140.5L277.222,140.5L282.185,140.5L287.148,140.5L292.111,140.5L297.074,140.5L302.037,140.5L307,140.5L311.963,140.5L316.926,140.5L321.889,140.5L326.852,140.5L331.815,140.5L336.778,140.5L341.741,140.5L346.704,140.5L351.667,140.5L356.63,140.5L361.593,140.5L366.556,140.5L371.519,140.5L376.481,140.5L381.444,140.5L386.407,140.5L391.37,140.5L396.333,140.5L436.037,140.5L441,140.5L441,137.705L436.037,135.019L396.333,136.154L391.37,136.612L386.407,140.425L381.444,96.73L376.481,137.244L371.519,138.958L366.556,139.559L361.593,139.06L356.63,126.615L351.667,132.884L346.704,118.7L341.741,134.649L336.778,133.923L331.815,135.41L326.852,134.588L321.889,118.7L316.926,134.955L311.963,140.459L307,135.563L302.037,133.586L297.074,135.118L292.111,129.933L287.148,139.682L282.185,139.335L277.222,139.583L272.259,139.118L267.296,135.824L262.333,128.541L247.444,121.321L242.481,130.897L237.519,133.019L227.593,138.133L222.63,78.842L217.667,139.556L212.704,135.59L207.741,139.261L202.778,139.991L197.815,137.502L192.852,135.936L187.889,138.062L182.926,138.191L177.963,138.228L173,137.318L168.037,30.141L163.074,130.554L158.111,138.228L153.148,130.5L148.185,13.374L138.259,94.16L133.296,113.722L128.333,139.882L123.37,84.197L118.407,118.51L113.444,113.518L108.481,105.012L103.519,125.613L98.556,138.188L93.593,132.418L88.63,5L83.667,99.844L78.704,95.735L73.741,97.368L68.778,111.325L63.815,140.381L58.852,140.052L53.889,138.86L48.926,135.128L43.963,115.542L39,131.753Z" fill="rgb(63, 185, 80)"/>
                        <path d="M39,140.5L43.963,140.5L48.926,140.5L53.889,140.5L58.852,140.5L63.815,140.5L68.778,140.5L73.741,140.5L78.704,140.5L83.667,140.5L88.63,140.5L93.593,140.5L98.556,140.5L103.519,140.5L108.481,140.5L113.444,140.5L118.407,140.5L123.37,140.5L128.333,140.5L133.296,140.5L138.259,140.5L148.185,140.5L153.148,140.5L158.111,140.5L163.074,140.5L168.037,140.5L173,140.5L177.963,140.5L182.926,140.5L187.889,140.5L192.852,140.5L197.815,140.5L202.778,140.5L207.741,140.5L212.704,140.5L217.667,140.5L222.63,140.5L227.593,140.5L237.519,140.5L242.481,140.5L247.444,140.5L262.333,140.5L267.296,140.5L272.259,140.5L277.222,140.5L282.185,140.5L287.148,140.5L292.111,140.5L297.074,140.5L302.037,140.5L307,140.5L311.963,140.5L316.926,140.5L321.889,140.5L326.852,140.5L331.815,140.5L336.778,140.5L341.741,140.5L346.704,140.5L351.667,140.5L356.63,140.5L361.593,140.5L366.556,140.5L371.519,140.5L376.481,140.5L381.444,140.5L386.407,140.5L391.37,140.5L396.333,140.5L436.037,140.5L441,140.5L441,141.308L436.037,141.033L396.333,141.821L391.37,140.975L386.407,140.524L381.444,140.87L376.481,140.86L371.519,140.697L366.556,140.595L361.593,140.66L356.63,140.595L351.667,143.373L346.704,142.486L341.741,141.58L336.778,141.247L331.815,141.023L326.852,141.773L321.889,148.874L316.926,141.902L311.963,140.517L307,142.663L302.037,142.897L297.074,141.043L292.111,141.648L287.148,140.537L282.185,141.627L277.222,140.999L272.259,140.792L267.296,141.556L262.333,141.909L247.444,142.293L242.481,141.797L237.519,140.622L227.593,141.553L222.63,140.792L217.667,140.874L212.704,140.88L207.741,142.249L202.778,140.503L197.815,140.51L192.852,141.349L187.889,141.59L182.926,141.216L177.963,141.906L173,140.663L168.037,141.736L163.074,143.981L158.111,141.271L153.148,143.97L148.185,153.444L138.259,154.932L133.296,143.413L128.333,140.503L123.37,186.358L118.407,140.935L113.444,190.803L108.481,141.288L103.519,141.281L98.556,142.089L93.593,140.52L88.63,185.706L83.667,143.651L78.704,153.291L73.741,147.919L68.778,140.894L63.815,140.548L58.852,140.554L53.889,140.816L48.926,145.064L43.963,141.172L39,142.599Z" fill="rgb(218, 54, 51)"/>
                    </svg>
                </div>
            </section>
        </div>
        <div xmlns="http://www.w3.org/1999/xhtml" id="metrics-end"></div>
    </foreignObject>
</svg>