<svg xmlns="http://www.w3.org/2000/svg" width="480" height="516" class="">
    <defs>
        <style/>
    </defs>
    <style>@keyframes animation-gauge{0%{stroke-dasharray:0 329}}@keyframes animation-rainbow{0%,to{color:#7f00ff;fill:#7f00ff}14%{color:#a933ff;fill:#a933ff}29%{color:#007fff;fill:#007fff}43%{color:#00ff7f;fill:#00ff7f}57%{color:#ff0;fill:#ff0}71%{color:#ff7f00;fill:#ff7f00}86%{color:red;fill:red}}svg{font-family:-apple-system,BlinkMacSystemFont,Segoe UI,Helvetica,Arial,sans-serif,Apple Color Emoji,Segoe UI Emoji;color:#777}h2,h3{margin:8px 0 2px;padding:0;color:#0366d6;font-weight:400}h2 svg,h3 svg{fill:currentColor}h2{font-size:16px}h3,svg{font-size:14px}section&gt;.field{margin-left:5px;margin-right:5px}.field{display:flex;align-items:center;margin-bottom:2px;white-space:nowrap}.field svg{margin:0 8px;fill:#959da5;flex-shrink:0}.row{display:flex;flex-wrap:wrap}.row section{flex:1 1 0}.margin-bottom{margin-bottom:16px}.margin-lr-auto{margin-left:auto;margin-right:auto}.diff-handle{color:#58a6ff;max-width:200px;text-overflow:ellipsis;overflow:hidden}.diff-box{display:inline-block;width:8px;height:8px;margin-left:1px;background-color:rgba(110,118,129,.4);border:1px solid rgba(246,240,251,.1)}.diff-box:first-child{margin-left:9px}.diff-box.added{background-color:#3fb950}.diff-box.deleted{background-color:#da3633}.diff-stats,code,span.code{font-family:SFMono-Regular,Consolas,Liberation Mono,Menlo,monospace}.diff-stats{margin-left:4px;font-weight:700;font-size:12px;white-space:nowrap}.added{color:#3fb950}.deleted{color:#da3633}code,span.code{background-color:#7777771f;padding:1px 5px;font-size:80%;border-radius:6px;color:#777}code{display:inline-block}span.code{margin:0 4px -3px}:root{--color-calendar-graph-day-bg:#ebedf0;--color-calendar-graph-day-border:rgba(27,31,35,0.06);--color-calendar-graph-day-L1-bg:#9be9a8;--color-calendar-graph-day-L2-bg:#40c463;--color-calendar-graph-day-L3-bg:#30a14e;--color-calendar-graph-day-L4-bg:#216e39;--color-calendar-halloween-graph-day-L1-bg:#ffee4a;--color-calendar-halloween-graph-day-L2-bg:#ffc501;--color-calendar-halloween-graph-day-L3-bg:#fe9600;--color-calendar-halloween-graph-day-L4-bg:#03001c;--color-calendar-winter-graph-day-L1-bg:#0a3069;--color-calendar-winter-graph-day-L2-bg:#0969da;--color-calendar-winter-graph-day-L3-bg:#54aeff;--color-calendar-winter-graph-day-L4-bg:#b6e3ff;--color-calendar-graph-day-L4-border:rgba(27,31,35,0.06);--color-calendar-graph-day-L3-border:rgba(27,31,35,0.06);--color-calendar-graph-day-L2-border:rgba(27,31,35,0.06);--color-calendar-graph-day-L1-border:rgba(27,31,35,0.06)}#metrics-end{width:100%}</style>
    <style/>
    <foreignObject x="0" y="0" width="100%" height="100%">
        <div xmlns="http://www.w3.org/1999/xhtml" xmlns:xlink="http://www.w3.org/1999/xlink" class="items-wrapper">
            <section>
                <h2 class="field">
                    <svg xmlns="http://www.w3.org/2000/svg" viewBox="0 0 16 16" width="16" height="16">
                        <path fill-rule="evenodd" d="M2.75 1.5a.25.25 0 00-.25.25v12.5c0 .138.112.25.25.25h10.5a.25.25 0 00.25-.25V4.664a.25.25 0 00-.073-.177l-2.914-2.914a.25.25 0 00-.177-.073H2.75zM1 1.75C1 .784 1.784 0 2.75 0h7.586c.464 0 .909.184 1.237.513l2.914 2.914c.329.328.513.773.513 1.237v9.586A1.75 1.75 0 0113.25 16H2.75A1.75 1.75 0 011 14.25V1.75zm7 1.5a.75.75 0 01.75.75v1.5h1.5a.75.75 0 010 1.5h-1.5v1.5a.75.75 0 01-1.5 0V7h-1.5a.75.75 0 010-1.5h1.5V4A.75.75 0 018 3.25zm-3 8a.75.75 0 01.75-.75h4.5a.75.75 0 010 1.5h-4.5a.75.75 0 01-.75-.75z"/>
                    </svg>
                    Lines of code pushed
                </h2>
                <div class="row">
                    <section>
                        <div class="field">
                            <svg xmlns="http://www.w3.org/2000/svg" viewBox="0 0 16 16" width="16" height="16">
                                <path fill-rule="evenodd" d="M8 5.5a2.5 2.5 0 100 5 2.5 2.5 0 000-5zM4 8a4 4 0 118 0 4 4 0 01-8 0z"/>
                            </svg>
                            <span class="diff-handle">Isaac7777-cpu/COMP2560-neuralgcm-lstm-tc-track-comparison</span>
                        </div>
                        <div class="field">
                            <svg xmlns="http://www.w3.org/2000/svg" viewBox="0 0 16 16" width="16" height="16">
                                <path fill-rule="evenodd" d="M8 5.5a2.5 2.5 0 100 5 2.5 2.5 0 000-5zM4 8a4 4 0 118 0 4 4 0 01-8 0z"/>
                            </svg>
                            <span class="diff-handle">Isaac7777-cpu/Megatron-LM</span>
                        </div>
                        <div class="field">
                            <svg xmlns="http://www.w3.org/2000/svg" viewBox="0 0 16 16" width="16" height="16">
                                <path fill-rule="evenodd" d="M8 5.5a2.5 2.5 0 100 5 2.5 2.5 0 000-5zM4 8a4 4 0 118 0 4 4 0 01-8 0z"/>
                            </svg>
                            <span class="diff-handle">Isaac7777-cpu/econ2026</span>
                        </div>
                        <div class="field">
                            <svg xmlns="http://www.w3.org/2000/svg" viewBox="0 0 16 16" width="16" height="16">
                                <path fill-rule="evenodd" d="M8 5.5a2.5 2.5 0 100 5 2.5 2.5 0 000-5zM4 8a4 4 0 118 0 4 4 0 01-8 0z"/>
                            </svg>
                            <span class="diff-handle">Isaac7777-cpu/comp3425-data-mining-notes</span>
                        </div>
                    </section>
                    <section>
                        <div class="field">
                            <div class="diff-box added"></div>
                            <div class="diff-box added"></div>
                            <div class="diff-box added"></div>
                            <div class="diff-box deleted"></div>
                            <div class="diff-box deleted"></div>
                            <div class="diff-stats">
                                <span class="added"> +3.46m</span>
                                <span class="deleted"> -3.27m</span>
                            </div>
                            <span> </span>
                        </div>
                        <div class="field">
                            <div class="diff-box added"></div>
                            <div class="diff-box added"></div>
                            <div class="diff-box added"></div>
                            <div class="diff-box deleted"></div>
                            <div class="diff-box deleted"></div>
                            <div class="diff-stats">
                                <span class="added">  +554k</span>
                                <span class="deleted">  -239k</span>
                            </div>
                            <span> </span>
                        </div>
                        <div class="field">
                            <div class="diff-box added"></div>
                            <div class="diff-box added"></div>
                            <div class="diff-box added"></div>
                            <div class="diff-box deleted"></div>
                            <div class="diff-box deleted"></div>
                            <div class="diff-stats">
                                <span class="added">  +283k</span>
                                <span class="deleted">  -267k</span>
                            </div>
                            <span> </span>
                        </div>
                        <div class="field">
                            <div class="diff-box added"></div>
                            <div class="diff-box added"></div>
                            <div class="diff-box added"></div>
                            <div class="diff-box added"></div>
                            <div class="diff-box deleted"></div>
                            <div class="diff-stats">
                                <span class="added"> +71.5k</span>
                                <span class="deleted"> -7.79k</span>
                            </div>
                            <span> </span>
                        </div>
                    </section>
                </div>
                <div class="row margin-bottom">
                    <h3 class="margin-lr-auto">Diff history</h3>
                    <svg xmlns="http://www.w3.org/2000/svg" width="480" height="315">
                        <g transform="translate(0,276)" fill="none" font-size="10" font-family="sans-serif" text-anchor="middle">
                            <path class="domain" stroke="currentColor" d="M39.5,6V0.5H441.5V6"/>
                            <g class="tick" opacity="1" transform="translate(96.62250830564784,0)">
                                <line stroke="currentColor" y2="6"/>
                                <text fill="currentColor" y="9" dy="0.71em" transform="translate(-5,5) rotate(-45)" style="text-anchor: end;">April</text>
                            </g>
                            <g class="tick" opacity="1" transform="translate(157.41777408637873,0)">
                                <line stroke="currentColor" y2="6"/>
                                <text fill="currentColor" y="9" dy="0.71em" transform="translate(-5,5) rotate(-45)" style="text-anchor: end;">July</text>
                            </g>
                            <g class="tick" opacity="1" transform="translate(218.8529900332226,0)">
                                <line stroke="currentColor" y2="6"/>
                                <text fill="currentColor" y="9" dy="0.71em" transform="translate(-5,5) rotate(-45)" style="text-anchor: end;">October</text>
                            </g>
                            <g class="tick" opacity="1" transform="translate(280.2603820598007,0)">
                                <line stroke="currentColor" y2="6"/>
                                <text fill="currentColor" y="9" dy="0.71em" transform="translate(-5,5) rotate(-45)" style="text-anchor: end;">2026</text>
                            </g>
                            <g class="tick" opacity="1" transform="translate(340.36004983388705,0)">
                                <line stroke="currentColor" y2="6"/>
                                <text fill="currentColor" y="9" dy="0.71em" transform="translate(-5,5) rotate(-45)" style="text-anchor: end;">April</text>
                            </g>
                            <g class="tick" opacity="1" transform="translate(401.1553156146179,0)">
                                <line stroke="currentColor" y2="6"/>
                                <text fill="currentColor" y="9" dy="0.71em" transform="translate(-5,5) rotate(-45)" style="text-anchor: end;">July</text>
                            </g>
                        </g>
                        <g transform="translate(39,0)" fill="none" font-size="10" font-family="sans-serif" text-anchor="end">
                            <path class="domain" stroke="currentColor" d="M-6,5.5H0.5V276.5H-6"/>
                            <g class="tick" opacity="1" transform="translate(0,39.130513231756204)">
                                <line stroke="currentColor" x2="-6"/>
                                <text fill="currentColor" x="-9" dy="0.32em">30k</text>
                            </g>
                            <g class="tick" opacity="1" transform="translate(0,73.08700882117081)">
                                <line stroke="currentColor" x2="-6"/>
                                <text fill="currentColor" x="-9" dy="0.32em">20k</text>
                            </g>
                            <g class="tick" opacity="1" transform="translate(0,107.04350441058538)">
                                <line stroke="currentColor" x2="-6"/>
                                <text fill="currentColor" x="-9" dy="0.32em">10k</text>
                            </g>
                            <g class="tick" opacity="1" transform="translate(0,141)">
                                <line stroke="currentColor" x2="-6"/>
                                <text fill="currentColor" x="-9" dy="0.32em">0.0</text>
                            </g>
                            <g class="tick" opacity="1" transform="translate(0,174.95649558941457)">
                                <line stroke="currentColor" x2="-6"/>
                                <text fill="currentColor" x="-9" dy="0.32em">−10k</text>
                            </g>
                            <g class="tick" opacity="1" transform="translate(0,208.9129911788292)">
                                <line stroke="currentColor" x2="-6"/>
                                <text fill="currentColor" x="-9" dy="0.32em">−20k</text>
                            </g>
                            <g class="tick" opacity="1" transform="translate(0,242.8694867682438)">
                                <line stroke="currentColor" x2="-6"/>
                                <text fill="currentColor" x="-9" dy="0.32em">−30k</text>
                            </g>
                        </g>
                        <path d="M39,140.5L43.674,140.5L48.349,140.5L53.023,140.5L57.698,140.5L62.372,140.5L67.047,140.5L71.721,140.5L76.395,140.5L81.07,140.5L85.744,140.5L90.419,140.5L95.093,140.5L99.767,140.5L104.442,140.5L109.116,140.5L113.791,140.5L118.465,140.5L123.14,140.5L127.814,140.5L132.488,140.5L137.163,140.5L141.837,140.5L146.512,140.5L151.186,140.5L155.86,140.5L160.535,140.5L165.209,140.5L169.884,140.5L174.558,140.5L179.233,140.5L183.907,140.5L188.581,140.5L193.256,140.5L197.93,140.5L202.605,140.5L207.279,140.5L211.953,140.5L216.628,140.5L221.302,140.5L225.977,140.5L230.651,140.5L235.326,140.5L240,140.5L244.674,140.5L249.349,140.5L254.023,140.5L258.698,140.5L263.372,140.5L268.047,140.5L272.721,140.5L277.395,140.5L282.07,140.5L286.744,140.5L291.419,140.5L296.093,140.5L300.767,140.5L305.442,140.5L310.116,140.5L314.791,140.5L319.465,140.5L324.14,140.5L328.814,140.5L333.488,140.5L338.163,140.5L342.837,140.5L347.512,140.5L352.186,140.5L356.86,140.5L361.535,140.5L366.209,140.5L370.884,140.5L375.558,140.5L380.233,140.5L384.907,140.5L389.581,140.5L394.256,140.5L398.93,140.5L403.605,140.5L408.279,140.5L412.953,140.5L417.628,140.5L422.302,140.5L426.977,140.5L431.651,140.5L436.326,140.5L441,140.5L441,133.76L436.326,139.206L431.651,137.444L426.977,136.969L422.302,132.537L417.628,135.597L412.953,133.943L408.279,138.527L403.605,139.006L398.93,139.841L394.256,139.98L389.581,139.899L384.907,140.133L380.233,139.902L375.558,135.284L370.884,135.699L366.209,139.76L361.535,94.859L356.86,136.435L352.186,137.369L347.512,138.823L342.837,138.15L338.163,125.817L333.488,131.892L328.814,117.79L324.14,133.634L319.465,132.819L314.791,134.503L310.116,133.627L305.442,117.824L300.767,134.096L296.093,139.702L291.419,134.707L286.744,132.575L282.07,134.164L277.395,129.043L272.721,138.819L268.047,138.541L263.372,138.941L258.698,137.539L254.023,135.091L249.349,128.052L244.674,139.899L240,139.651L235.326,118.36L230.651,129.899L225.977,132.347L221.302,139.831L216.628,137.244L211.953,78.044L207.279,138.761L202.605,134.71L197.93,138.531L193.256,139.189L188.581,136.71L183.907,135.006L179.233,137.271L174.558,137.176L169.884,137.457L165.209,136.378L160.535,29.106L155.86,129.542L151.186,137.369L146.512,128.116L141.837,12.419L137.163,139.257L132.488,93.202L127.814,112.639L123.14,138.972L118.465,76.889L113.791,118.51L109.116,113.518L104.442,105.012L99.767,125.613L95.093,138.188L90.419,132.418L85.744,5L81.07,99.844L76.395,95.735L71.721,97.368L67.047,111.325L62.372,140.381L57.698,140.052L53.023,138.86L48.349,135.128L43.674,115.542L39,131.753Z" fill="rgb(63, 185, 80)"/>
                        <path d="M39,140.5L43.674,140.5L48.349,140.5L53.023,140.5L57.698,140.5L62.372,140.5L67.047,140.5L71.721,140.5L76.395,140.5L81.07,140.5L85.744,140.5L90.419,140.5L95.093,140.5L99.767,140.5L104.442,140.5L109.116,140.5L113.791,140.5L118.465,140.5L123.14,140.5L127.814,140.5L132.488,140.5L137.163,140.5L141.837,140.5L146.512,140.5L151.186,140.5L155.86,140.5L160.535,140.5L165.209,140.5L169.884,140.5L174.558,140.5L179.233,140.5L183.907,140.5L188.581,140.5L193.256,140.5L197.93,140.5L202.605,140.5L207.279,140.5L211.953,140.5L216.628,140.5L221.302,140.5L225.977,140.5L230.651,140.5L235.326,140.5L240,140.5L244.674,140.5L249.349,140.5L254.023,140.5L258.698,140.5L263.372,140.5L268.047,140.5L272.721,140.5L277.395,140.5L282.07,140.5L286.744,140.5L291.419,140.5L296.093,140.5L300.767,140.5L305.442,140.5L310.116,140.5L314.791,140.5L319.465,140.5L324.14,140.5L328.814,140.5L333.488,140.5L338.163,140.5L342.837,140.5L347.512,140.5L352.186,140.5L356.86,140.5L361.535,140.5L366.209,140.5L370.884,140.5L375.558,140.5L380.233,140.5L384.907,140.5L389.581,140.5L394.256,140.5L398.93,140.5L403.605,140.5L408.279,140.5L412.953,140.5L417.628,140.5L422.302,140.5L426.977,140.5L431.651,140.5L436.326,140.5L441,140.5L441,142.493L436.326,141.315L431.651,142.133L426.977,142.235L422.302,144.493L417.628,142.507L412.953,142.218L408.279,141.974L403.605,141.994L398.93,141.179L394.256,140.999L389.581,141.101L384.907,140.867L380.233,141.098L375.558,142.711L370.884,141.889L366.209,141.169L361.535,142.762L356.86,141.648L352.186,142.286L347.512,141.332L342.837,141.57L338.163,141.413L333.488,144.344L328.814,143.417L324.14,142.595L319.465,142.351L314.791,141.93L310.116,142.734L305.442,149.729L300.767,142.762L296.093,141.295L291.419,143.519L286.744,143.909L282.07,141.977L277.395,142.558L272.721,141.379L268.047,142.442L263.372,141.621L258.698,142.391L254.023,142.269L249.349,142.398L244.674,141.101L240,141.369L235.326,145.234L230.651,142.809L225.977,141.295L221.302,141.169L216.628,142.442L211.953,141.59L207.279,141.668L202.605,141.76L197.93,142.999L193.256,141.284L188.581,141.301L183.907,142.279L179.233,142.402L174.558,142.211L169.884,142.697L165.209,141.604L160.535,142.772L155.86,144.972L151.186,142.15L146.512,146.354L141.837,154.398L137.163,141.722L132.488,155.909L127.814,144.497L123.14,141.413L118.465,187.798L113.791,140.935L109.116,190.803L104.442,141.288L99.767,141.281L95.093,142.089L90.419,140.52L85.744,185.706L81.07,143.651L76.395,153.291L71.721,147.919L67.047,140.894L62.372,140.548L57.698,140.554L53.023,140.816L48.349,145.064L43.674,141.172L39,142.599Z" fill="rgb(218, 54, 51)"/>
                    </svg>
                </div>
            </section>
        </div>
        <div xmlns="http://www.w3.org/1999/xhtml" id="metrics-end"></div>
    </foreignObject>
</svg>