<svg xmlns="http://www.w3.org/2000/svg" width="480" height="516" class="">
    <defs>
        <style/>
    </defs>
    <style>@keyframes animation-gauge{0%{stroke-dasharray:0 329}}@keyframes animation-rainbow{0%,to{color:#7f00ff;fill:#7f00ff}14%{color:#a933ff;fill:#a933ff}29%{color:#007fff;fill:#007fff}43%{color:#00ff7f;fill:#00ff7f}57%{color:#ff0;fill:#ff0}71%{color:#ff7f00;fill:#ff7f00}86%{color:red;fill:red}}svg{font-family:-apple-system,BlinkMacSystemFont,Segoe UI,Helvetica,Arial,sans-serif,Apple Color Emoji,Segoe UI Emoji;color:#777}h2,h3{margin:8px 0 2px;padding:0;color:#0366d6;font-weight:400}h2 svg,h3 svg{fill:currentColor}h2{font-size:16px}h3,svg{font-size:14px}section&gt;.field{margin-left:5px;margin-right:5px}.field{display:flex;align-items:center;margin-bottom:2px;white-space:nowrap}.field svg{margin:0 8px;fill:#959da5;flex-shrink:0}.row{display:flex;flex-wrap:wrap}.row section{flex:1 1 0}.margin-bottom{margin-bottom:16px}.margin-lr-auto{margin-left:auto;margin-right:auto}.diff-handle{color:#58a6ff;max-width:200px;text-overflow:ellipsis;overflow:hidden}.diff-box{display:inline-block;width:8px;height:8px;margin-left:1px;background-color:rgba(110,118,129,.4);border:1px solid rgba(246,240,251,.1)}.diff-box:first-child{margin-left:9px}.diff-box.added{background-color:#3fb950}.diff-box.deleted{background-color:#da3633}.diff-stats,code,span.code{font-family:SFMono-Regular,Consolas,Liberation Mono,Menlo,monospace}.diff-stats{margin-left:4px;font-weight:700;font-size:12px;white-space:nowrap}.added{color:#3fb950}.deleted{color:#da3633}code,span.code{background-color:#7777771f;padding:1px 5px;font-size:80%;border-radius:6px;color:#777}code{display:inline-block}span.code{margin:0 4px -3px}:root{--color-calendar-graph-day-bg:#ebedf0;--color-calendar-graph-day-border:rgba(27,31,35,0.06);--color-calendar-graph-day-L1-bg:#9be9a8;--color-calendar-graph-day-L2-bg:#40c463;--color-calendar-graph-day-L3-bg:#30a14e;--color-calendar-graph-day-L4-bg:#216e39;--color-calendar-halloween-graph-day-L1-bg:#ffee4a;--color-calendar-halloween-graph-day-L2-bg:#ffc501;--color-calendar-halloween-graph-day-L3-bg:#fe9600;--color-calendar-halloween-graph-day-L4-bg:#03001c;--color-calendar-winter-graph-day-L1-bg:#0a3069;--color-calendar-winter-graph-day-L2-bg:#0969da;--color-calendar-winter-graph-day-L3-bg:#54aeff;--color-calendar-winter-graph-day-L4-bg:#b6e3ff;--color-calendar-graph-day-L4-border:rgba(27,31,35,0.06);--color-calendar-graph-day-L3-border:rgba(27,31,35,0.06);--color-calendar-graph-day-L2-border:rgba(27,31,35,0.06);--color-calendar-graph-day-L1-border:rgba(27,31,35,0.06)}#metrics-end{width:100%}</style>
    <style/>
    <foreignObject x="0" y="0" width="100%" height="100%">
        <div xmlns="http://www.w3.org/1999/xhtml" xmlns:xlink="http://www.w3.org/1999/xlink" class="items-wrapper">
            <section>
                <h2 class="field">
                    <svg xmlns="http://www.w3.org/2000/svg" viewBox="0 0 16 16" width="16" height="16">
                        <path fill-rule="evenodd" d="M2.75 1.5a.25.25 0 00-.25.25v12.5c0 .138.112.25.25.25h10.5a.25.25 0 00.25-.25V4.664a.25.25 0 00-.073-.177l-2.914-2.914a.25.25 0 00-.177-.073H2.75zM1 1.75C1 .784 1.784 0 2.75 0h7.586c.464 0 .909.184 1.237.513l2.914 2.914c.329.328.513.773.513 1.237v9.586A1.75 1.75 0 0113.25 16H2.75A1.75 1.75 0 011 14.25V1.75zm7 1.5a.75.75 0 01.75.75v1.5h1.5a.75.75 0 010 1.5h-1.5v1.5a.75.75 0 01-1.5 0V7h-1.5a.75.75 0 010-1.5h1.5V4A.75.75 0 018 3.25zm-3 8a.75.75 0 01.75-.75h4.5a.75.75 0 010 1.5h-4.5a.75.75 0 01-.75-.75z"/>
                    </svg>
                    Lines of code pushed
                </h2>
                <div class="row">
                    <section>
                        <div class="field">
                            <svg xmlns="http://www.w3.org/2000/svg" viewBox="0 0 16 16" width="16" height="16">
                                <path fill-rule="evenodd" d="M8 5.5a2.5 2.5 0 100 5 2.5 2.5 0 000-5zM4 8a4 4 0 118 0 4 4 0 01-8 0z"/>
                            </svg>
                            <span class="diff-handle">Isaac7777-cpu/COMP2560-neuralgcm-lstm-tc-track-comparison</span>
                        </div>
                        <div class="field">
                            <svg xmlns="http://www.w3.org/2000/svg" viewBox="0 0 16 16" width="16" height="16">
                                <path fill-rule="evenodd" d="M8 5.5a2.5 2.5 0 100 5 2.5 2.5 0 000-5zM4 8a4 4 0 118 0 4 4 0 01-8 0z"/>
                            </svg>
                            <span class="diff-handle">Isaac7777-cpu/Megatron-LM</span>
                        </div>
                        <div class="field">
                            <svg xmlns="http://www.w3.org/2000/svg" viewBox="0 0 16 16" width="16" height="16">
                                <path fill-rule="evenodd" d="M8 5.5a2.5 2.5 0 100 5 2.5 2.5 0 000-5zM4 8a4 4 0 118 0 4 4 0 01-8 0z"/>
                            </svg>
                            <span class="diff-handle">Isaac7777-cpu/econ2026</span>
                        </div>
                        <div class="field">
                            <svg xmlns="http://www.w3.org/2000/svg" viewBox="0 0 16 16" width="16" height="16">
                                <path fill-rule="evenodd" d="M8 5.5a2.5 2.5 0 100 5 2.5 2.5 0 000-5zM4 8a4 4 0 118 0 4 4 0 01-8 0z"/>
                            </svg>
                            <span class="diff-handle">Isaac7777-cpu/comp3425-data-mining-notes</span>
                        </div>
                    </section>
                    <section>
                        <div class="field">
                            <div class="diff-box added"></div>
                            <div class="diff-box added"></div>
                            <div class="diff-box added"></div>
                            <div class="diff-box deleted"></div>
                            <div class="diff-box deleted"></div>
                            <div class="diff-stats">
                                <span class="added"> +3.46m</span>
                                <span class="deleted"> -3.27m</span>
                            </div>
                            <span> </span>
                        </div>
                        <div class="field">
                            <div class="diff-box added"></div>
                            <div class="diff-box added"></div>
                            <div class="diff-box added"></div>
                            <div class="diff-box deleted"></div>
                            <div class="diff-box deleted"></div>
                            <div class="diff-stats">
                                <span class="added">  +554k</span>
                                <span class="deleted">  -239k</span>
                            </div>
                            <span> </span>
                        </div>
                        <div class="field">
                            <div class="diff-box added"></div>
                            <div class="diff-box added"></div>
                            <div class="diff-box added"></div>
                            <div class="diff-box deleted"></div>
                            <div class="diff-box deleted"></div>
                            <div class="diff-stats">
                                <span class="added">  +283k</span>
                                <span class="deleted">  -267k</span>
                            </div>
                            <span> </span>
                        </div>
                        <div class="field">
                            <div class="diff-box added"></div>
                            <div class="diff-box added"></div>
                            <div class="diff-box added"></div>
                            <div class="diff-box added"></div>
                            <div class="diff-box deleted"></div>
                            <div class="diff-stats">
                                <span class="added"> +71.5k</span>
                                <span class="deleted"> -7.79k</span>
                            </div>
                            <span> </span>
                        </div>
                    </section>
                </div>
                <div class="row margin-bottom">
                    <h3 class="margin-lr-auto">Diff history</h3>
                    <svg xmlns="http://www.w3.org/2000/svg" width="480" height="315">
                        <g transform="translate(0,276)" fill="none" font-size="10" font-family="sans-serif" text-anchor="middle">
                            <path class="domain" stroke="currentColor" d="M39.5,6V0.5H441.5V6"/>
                            <g class="tick" opacity="1" transform="translate(95.32426948051948,0)">
                                <line stroke="currentColor" y2="6"/>
                                <text fill="currentColor" y="9" dy="0.71em" transform="translate(-5,5) rotate(-45)" style="text-anchor: end;">April</text>
                            </g>
                            <g class="tick" opacity="1" transform="translate(154.73782467532467,0)">
                                <line stroke="currentColor" y2="6"/>
                                <text fill="currentColor" y="9" dy="0.71em" transform="translate(-5,5) rotate(-45)" style="text-anchor: end;">July</text>
                            </g>
                            <g class="tick" opacity="1" transform="translate(214.77678571428572,0)">
                                <line stroke="currentColor" y2="6"/>
                                <text fill="currentColor" y="9" dy="0.71em" transform="translate(-5,5) rotate(-45)" style="text-anchor: end;">October</text>
                            </g>
                            <g class="tick" opacity="1" transform="translate(274.7885551948052,0)">
                                <line stroke="currentColor" y2="6"/>
                                <text fill="currentColor" y="9" dy="0.71em" transform="translate(-5,5) rotate(-45)" style="text-anchor: end;">2026</text>
                            </g>
                            <g class="tick" opacity="1" transform="translate(333.52232142857144,0)">
                                <line stroke="currentColor" y2="6"/>
                                <text fill="currentColor" y="9" dy="0.71em" transform="translate(-5,5) rotate(-45)" style="text-anchor: end;">April</text>
                            </g>
                            <g class="tick" opacity="1" transform="translate(392.9358766233766,0)">
                                <line stroke="currentColor" y2="6"/>
                                <text fill="currentColor" y="9" dy="0.71em" transform="translate(-5,5) rotate(-45)" style="text-anchor: end;">July</text>
                            </g>
                        </g>
                        <g transform="translate(39,0)" fill="none" font-size="10" font-family="sans-serif" text-anchor="end">
                            <path class="domain" stroke="currentColor" d="M-6,5.5H0.5V276.5H-6"/>
                            <g class="tick" opacity="1" transform="translate(0,39.130513231756204)">
                                <line stroke="currentColor" x2="-6"/>
                                <text fill="currentColor" x="-9" dy="0.32em">30k</text>
                            </g>
                            <g class="tick" opacity="1" transform="translate(0,73.08700882117081)">
                                <line stroke="currentColor" x2="-6"/>
                                <text fill="currentColor" x="-9" dy="0.32em">20k</text>
                            </g>
                            <g class="tick" opacity="1" transform="translate(0,107.04350441058538)">
                                <line stroke="currentColor" x2="-6"/>
                                <text fill="currentColor" x="-9" dy="0.32em">10k</text>
                            </g>
                            <g class="tick" opacity="1" transform="translate(0,141)">
                                <line stroke="currentColor" x2="-6"/>
                                <text fill="currentColor" x="-9" dy="0.32em">0.0</text>
                            </g>
                            <g class="tick" opacity="1" transform="translate(0,174.95649558941457)">
                                <line stroke="currentColor" x2="-6"/>
                                <text fill="currentColor" x="-9" dy="0.32em">−10k</text>
                            </g>
                            <g class="tick" opacity="1" transform="translate(0,208.9129911788292)">
                                <line stroke="currentColor" x2="-6"/>
                                <text fill="currentColor" x="-9" dy="0.32em">−20k</text>
                            </g>
                            <g class="tick" opacity="1" transform="translate(0,242.8694867682438)">
                                <line stroke="currentColor" x2="-6"/>
                                <text fill="currentColor" x="-9" dy="0.32em">−30k</text>
                            </g>
                        </g>
                        <path d="M39,140.5L43.568,140.5L48.136,140.5L52.705,140.5L57.273,140.5L61.841,140.5L66.409,140.5L70.977,140.5L75.545,140.5L80.114,140.5L84.682,140.5L89.25,140.5L93.818,140.5L98.386,140.5L102.955,140.5L107.523,140.5L112.091,140.5L116.659,140.5L121.227,140.5L125.795,140.5L130.364,140.5L139.5,140.5L144.068,140.5L148.636,140.5L153.205,140.5L157.773,140.5L162.341,140.5L166.909,140.5L171.477,140.5L176.045,140.5L180.614,140.5L185.182,140.5L189.75,140.5L194.318,140.5L198.886,140.5L203.455,140.5L208.023,140.5L212.591,140.5L221.727,140.5L226.295,140.5L230.864,140.5L244.568,140.5L249.136,140.5L253.705,140.5L258.273,140.5L262.841,140.5L267.409,140.5L271.977,140.5L276.545,140.5L281.114,140.5L285.682,140.5L290.25,140.5L294.818,140.5L299.386,140.5L303.955,140.5L308.523,140.5L313.091,140.5L317.659,140.5L322.227,140.5L326.795,140.5L331.364,140.5L335.932,140.5L340.5,140.5L345.068,140.5L349.636,140.5L354.205,140.5L358.773,140.5L363.341,140.5L367.909,140.5L404.455,140.5L409.023,140.5L413.591,140.5L418.159,140.5L422.727,140.5L427.295,140.5L431.864,140.5L436.432,140.5L441,140.5L441,138.106L436.432,135.206L431.864,134.775L427.295,140.011L422.727,138.371L418.159,137.987L413.591,135.206L409.023,136.547L404.455,135.019L367.909,136.154L363.341,136.612L358.773,140.425L354.205,96.73L349.636,137.244L345.068,138.958L340.5,139.559L335.932,139.06L331.364,126.615L326.795,132.884L322.227,118.7L317.659,134.649L313.091,133.923L308.523,135.41L303.955,134.588L299.386,118.7L294.818,134.955L290.25,140.459L285.682,135.563L281.114,133.586L276.545,135.118L271.977,129.933L267.409,139.682L262.841,139.335L258.273,139.583L253.705,139.118L249.136,135.824L244.568,128.541L230.864,121.321L226.295,130.897L221.727,133.019L212.591,138.133L208.023,78.842L203.455,139.556L198.886,135.59L194.318,139.261L189.75,139.991L185.182,137.502L180.614,135.936L176.045,138.062L171.477,138.191L166.909,138.228L162.341,137.318L157.773,30.141L153.205,130.554L148.636,138.228L144.068,130.5L139.5,13.374L130.364,94.16L125.795,113.722L121.227,139.882L116.659,84.197L112.091,118.51L107.523,113.518L102.955,105.012L98.386,125.613L93.818,138.188L89.25,132.418L84.682,5L80.114,99.844L75.545,95.735L70.977,97.368L66.409,111.325L61.841,140.381L57.273,140.052L52.705,138.86L48.136,135.128L43.568,115.542L39,131.753Z" fill="rgb(63, 185, 80)"/>
                        <path d="M39,140.5L43.568,140.5L48.136,140.5L52.705,140.5L57.273,140.5L61.841,140.5L66.409,140.5L70.977,140.5L75.545,140.5L80.114,140.5L84.682,140.5L89.25,140.5L93.818,140.5L98.386,140.5L102.955,140.5L107.523,140.5L112.091,140.5L116.659,140.5L121.227,140.5L125.795,140.5L130.364,140.5L139.5,140.5L144.068,140.5L148.636,140.5L153.205,140.5L157.773,140.5L162.341,140.5L166.909,140.5L171.477,140.5L176.045,140.5L180.614,140.5L185.182,140.5L189.75,140.5L194.318,140.5L198.886,140.5L203.455,140.5L208.023,140.5L212.591,140.5L221.727,140.5L226.295,140.5L230.864,140.5L244.568,140.5L249.136,140.5L253.705,140.5L258.273,140.5L262.841,140.5L267.409,140.5L271.977,140.5L276.545,140.5L281.114,140.5L285.682,140.5L290.25,140.5L294.818,140.5L299.386,140.5L303.955,140.5L308.523,140.5L313.091,140.5L317.659,140.5L322.227,140.5L326.795,140.5L331.364,140.5L335.932,140.5L340.5,140.5L345.068,140.5L349.636,140.5L354.205,140.5L358.773,140.5L363.341,140.5L367.909,140.5L404.455,140.5L409.023,140.5L413.591,140.5L418.159,140.5L422.727,140.5L427.295,140.5L431.864,140.5L436.432,140.5L441,140.5L441,140.7L436.432,141.478L431.864,141.478L427.295,140.51L422.727,141.186L418.159,141.216L413.591,141.845L409.023,141.536L404.455,141.033L367.909,141.821L363.341,140.975L358.773,140.524L354.205,140.87L349.636,140.86L345.068,140.697L340.5,140.595L335.932,140.66L331.364,140.595L326.795,143.373L322.227,142.486L317.659,141.58L313.091,141.247L308.523,141.023L303.955,141.773L299.386,148.874L294.818,141.902L290.25,140.517L285.682,142.663L281.114,142.897L276.545,141.043L271.977,141.648L267.409,140.537L262.841,141.627L258.273,140.999L253.705,140.792L249.136,141.556L244.568,141.909L230.864,142.293L226.295,141.797L221.727,140.622L212.591,141.553L208.023,140.792L203.455,140.874L198.886,140.88L194.318,142.249L189.75,140.503L185.182,140.51L180.614,141.349L176.045,141.59L171.477,141.216L166.909,141.906L162.341,140.663L157.773,141.736L153.205,143.981L148.636,141.271L144.068,143.97L139.5,153.444L130.364,154.932L125.795,143.413L121.227,140.503L116.659,186.358L112.091,140.935L107.523,190.803L102.955,141.288L98.386,141.281L93.818,142.089L89.25,140.52L84.682,185.706L80.114,143.651L75.545,153.291L70.977,147.919L66.409,140.894L61.841,140.548L57.273,140.554L52.705,140.816L48.136,145.064L43.568,141.172L39,142.599Z" fill="rgb(218, 54, 51)"/>
                    </svg>
                </div>
            </section>
        </div>
        <div xmlns="http://www.w3.org/1999/xhtml" id="metrics-end"></div>
    </foreignObject>
</svg>